<svg width="1200" height="675" viewBox="0 0 1200 675" fill="none" xmlns="http://www.w3.org/2000/svg">
<rect width="1200" height="675" fill="url(#paint0_linear_1368_1883)"/>
<g opacity="0.1">
<path d="M1023.2 462.596L806.229 328.143L903.814 271.511L1128 401.785L1023.2 462.596Z" fill="black"/>
</g>
<path d="M1076 408.635L1085.65 403.015L1086.14 230.532L1076.47 236.145L1076 408.635Z" fill="#3B07AB"/>
<path d="M1076.47 236.145L1086.14 230.533L875.627 109L865.973 114.613L1076.47 236.145Z" fill="#5100FF"/>
<path d="M865.973 114.613L865.471 287.084L1076 408.636L1076.47 236.145L865.973 114.613Z" fill="#5100FF"/>
<path d="M1062.43 412.051L1071.83 406.588L1072.3 238.779L1062.9 244.242L1062.43 412.051Z" fill="#EBF5FF"/>
<path d="M1062.9 244.242L1072.3 238.779L867.493 120.538L858.086 125.996L1062.9 244.242Z" fill="#DEF2FF"/>
<path d="M858.086 125.996L857.62 293.809L1062.43 412.051L1062.9 244.242L858.086 125.996Z" fill="#C3DFF4"/>
<path d="M965.193 188.453C965.193 188.453 998.032 231.181 1064.53 250.1L1060.43 418.571C1060.43 418.571 1006.3 418.231 965.193 365.79V188.453Z" fill="#D7E9FF"/>
<path d="M965.193 188.453C965.193 188.453 983.043 240.894 1049.54 259.823L1046.3 418.231C1046.3 418.231 1006.3 418.231 965.193 365.79V188.453Z" fill="#EBF5FF"/>
<path d="M965.193 188.453C965.193 188.453 961.316 242.7 1027.81 261.617V414.274C1027.81 414.274 977.593 408.636 965.193 365.79V188.453Z" fill="#D7E9FF"/>
<path d="M965.193 188.453C965.193 188.453 916.679 183.127 865.975 136.52L868.322 309.94C868.322 309.94 902.581 368.878 965.193 365.791V188.453Z" fill="#EBF5FF"/>
<path d="M965.192 188.452C965.192 188.452 912.103 197.521 861.383 150.914V306.379C861.383 306.379 902.581 368.878 965.192 365.788V188.452Z" fill="#B8D2E8"/>
<path d="M965.193 188.453C965.193 188.453 910.167 197.522 857.62 165.995L864.579 322.069C864.579 322.069 902.414 371.274 965.193 365.789V188.453Z" fill="#EBF5FF"/>
<path d="M945.751 222.357C951.49 222.357 955.127 222.042 955.681 221.994L955.179 216.645C954.659 216.698 900.862 220.542 865.473 192.92V195.16C893.337 216.913 928.436 222.357 945.751 222.357Z" fill="#AFD2E8"/>
<path d="M944.727 246.95C950.462 246.95 954.101 246.635 954.649 246.581L954.156 241.235C953.632 241.284 899.841 245.13 864.447 217.51V219.742C892.305 241.495 927.404 246.95 944.727 246.95Z" fill="#AFD2E8"/>
<path d="M944.719 275.752C950.459 275.752 954.101 275.437 954.649 275.383L954.156 270.035C953.632 270.089 899.832 273.937 864.447 246.315V248.55C892.305 270.305 927.404 275.752 944.719 275.752Z" fill="#AFD2E8"/>
<path d="M944.713 305.186C950.451 305.186 954.096 304.874 954.649 304.822L954.148 299.472C953.627 299.523 899.826 303.373 864.447 275.752V277.984C892.305 299.737 927.404 305.186 944.713 305.186Z" fill="#AFD2E8"/>
<path d="M946.583 333.51C952.32 333.51 955.959 333.193 956.507 333.141L956.011 327.793C955.486 327.844 901.693 331.695 866.311 304.073V306.305C894.172 328.066 929.266 333.51 946.583 333.51Z" fill="#AFD2E8"/>
<path d="M970.971 238.779C970.971 238.779 990.309 263.514 1014.86 270.5V275.752C1014.86 275.752 990.198 265.683 970.971 241.245V238.779Z" fill="#AFD2E8"/>
<path d="M970.971 260.254C970.971 260.254 990.309 284.992 1014.86 291.975V297.226C1014.86 297.226 990.198 287.161 970.971 262.718V260.254Z" fill="#AFD2E8"/>
<path d="M970.971 287.096C970.971 287.096 990.309 311.834 1014.86 318.82V324.073C1014.86 324.073 990.198 314.004 970.971 289.563V287.096Z" fill="#AFD2E8"/>
<path d="M970.971 313.942C970.971 313.942 990.309 338.679 1014.86 345.66V350.918C1014.86 350.918 990.198 340.851 970.971 316.405V313.942Z" fill="#AFD2E8"/>
<path d="M970.971 346.154C970.971 346.154 990.309 370.895 1014.86 377.875V383.13C1014.86 383.13 990.198 373.063 970.971 348.623V346.154Z" fill="#AFD2E8"/>
<path opacity="0.1" d="M1012.2 475.102L1000.05 468.047L803.806 353.997L800.448 352.05C791.398 346.788 776.68 346.788 767.574 352.05L649.85 420.012C640.736 425.272 640.677 433.805 649.738 439.056L653.086 441.011L849.344 555.064L861.487 562.113C870.534 567.379 885.272 567.379 894.379 562.113L1012.1 494.144C1021.21 488.887 1021.26 480.359 1012.2 475.102Z" fill="black"/>
<path d="M1006.23 465.376L1006.29 486.108C1010.63 483.603 1012.78 480.327 1012.77 477.049L1012.72 456.317C1012.73 459.598 1010.56 462.881 1006.23 465.376Z" fill="#85A9FF"/>
<mask id="mask0_1368_1883" style="mask-type:luminance" maskUnits="userSpaceOnUse" x="751" y="352" width="6" height="24">
<path d="M756.95 375.025C756.928 368.112 756.899 361.202 756.888 354.293C756.888 353.822 756.583 353.368 755.979 353.017C754.746 352.306 752.761 352.306 751.529 353.017L751.594 373.742C752.812 373.038 754.806 373.038 756.028 373.742C756.639 374.097 756.95 374.557 756.95 375.025Z" fill="white"/>
</mask>
<g mask="url(#mask0_1368_1883)">
<path d="M751.529 353.017L751.594 373.742C751.729 373.667 751.876 373.594 752.037 373.533L751.983 352.798C751.822 352.859 751.669 352.93 751.529 353.017Z" fill="#318385"/>
<path d="M751.983 352.798L752.037 373.533C752.158 373.476 752.286 373.437 752.421 373.4L752.355 352.668C752.229 352.708 752.103 352.752 751.983 352.798Z" fill="#33888A"/>
<path d="M752.355 352.668L752.421 373.4C752.517 373.372 752.632 373.342 752.75 373.318L752.697 352.585C752.578 352.616 752.465 352.64 752.355 352.668Z" fill="#358D8F"/>
<path d="M752.697 352.583L752.75 373.317C752.843 373.295 752.96 373.276 753.059 373.263L752.999 352.535C752.903 352.546 752.794 352.568 752.697 352.583Z" fill="#379294"/>
<path d="M753.001 352.535L753.061 373.264C753.158 373.257 753.265 373.242 753.363 373.232L753.305 352.497C753.201 352.511 753.108 352.525 753.001 352.535Z" fill="#399799"/>
<path d="M753.305 352.497L753.363 373.232C753.475 373.226 753.574 373.218 753.681 373.214L753.615 352.481C753.511 352.484 753.41 352.492 753.305 352.497Z" fill="#3B9C9E"/>
<path d="M753.615 352.481L753.681 373.214C753.779 373.214 753.9 373.214 753.999 373.214L753.935 352.481C753.839 352.481 753.725 352.481 753.615 352.481Z" fill="#3DA1A3"/>
<path d="M753.935 352.481L753.999 373.214C754.113 373.221 754.233 373.232 754.346 373.243L754.288 352.511C754.182 352.492 754.062 352.489 753.935 352.481Z" fill="#3FA6A8"/>
<path d="M754.288 352.511L754.346 373.243C754.488 373.258 754.614 373.269 754.746 373.296L754.692 352.567C754.557 352.541 754.433 352.525 754.288 352.511Z" fill="#41ABAD"/>
<path d="M754.693 352.568L754.746 373.297C754.956 373.338 755.16 373.388 755.353 373.443L755.283 352.714C755.096 352.651 754.899 352.601 754.693 352.568Z" fill="#43B0B3"/>
<path d="M755.283 352.714L755.353 373.443C755.59 373.52 755.827 373.621 756.03 373.742C756.052 373.751 756.068 373.756 756.072 373.762L756.009 353.037C755.995 353.029 755.984 353.018 755.979 353.018C755.768 352.892 755.537 352.786 755.283 352.714Z" fill="#44B5B8"/>
<path d="M756.009 353.036L756.072 373.761C756.222 373.853 756.359 373.961 756.472 374.061L756.413 353.329C756.298 353.225 756.172 353.129 756.009 353.036Z" fill="#43B0B3"/>
<path d="M756.413 353.33L756.473 374.062C756.54 374.131 756.613 374.199 756.662 374.273L756.605 353.536C756.548 353.466 756.474 353.395 756.413 353.33Z" fill="#41ABAD"/>
<path d="M756.605 353.535L756.661 374.271C756.715 374.328 756.745 374.399 756.786 374.46L756.732 353.724C756.688 353.661 756.654 353.601 756.605 353.535Z" fill="#3FA6A8"/>
<path d="M756.732 353.724L756.786 374.461C756.822 374.521 756.851 374.577 756.879 374.642L756.819 353.905C756.786 353.847 756.758 353.79 756.732 353.724Z" fill="#3DA1A3"/>
<path d="M756.819 353.906L756.879 374.643C756.894 374.7 756.915 374.756 756.929 374.815L756.868 354.081C756.85 354.021 756.836 353.968 756.819 353.906Z" fill="#3B9C9E"/>
<path d="M756.868 354.083L756.929 374.817C756.942 374.876 756.951 374.935 756.951 374.995L756.89 354.261C756.888 354.201 756.879 354.141 756.868 354.083Z" fill="#399799"/>
<path d="M756.888 354.261L756.95 374.994C756.95 375.008 756.95 375.012 756.95 375.026L756.888 354.294C756.888 354.283 756.888 354.272 756.888 354.261Z" fill="#379294"/>
</g>
<mask id="mask1_1368_1883" style="mask-type:luminance" maskUnits="userSpaceOnUse" x="755" y="354" width="2" height="23">
<path d="M756.95 375.024C756.928 368.112 756.899 361.202 756.888 354.292C756.888 354.763 756.583 355.228 755.96 355.587L756.022 376.319C756.639 375.96 756.95 375.495 756.95 375.024Z" fill="white"/>
</mask>
<g mask="url(#mask1_1368_1883)">
<path d="M755.962 355.589L756.023 376.321C756.641 375.96 756.951 375.497 756.951 375.026L756.89 354.294C756.888 354.763 756.583 355.228 755.962 355.589Z" fill="#858585"/>
</g>
<path d="M700.959 382.207L701.023 402.94L751.594 373.743L751.529 353.017L700.959 382.207Z" fill="#338789"/>
<path d="M705.398 384.784L705.461 405.511L756.024 376.32L755.962 355.589L705.398 384.784Z" fill="#898989"/>
<mask id="mask2_1368_1883" style="mask-type:luminance" maskUnits="userSpaceOnUse" x="700" y="383" width="6" height="24">
<path d="M700.039 383.501C700.061 390.415 700.073 397.321 700.096 404.235C700.096 404.693 700.406 405.156 701.015 405.51C702.232 406.224 704.216 406.224 705.461 405.51L705.398 384.785C704.16 385.492 702.178 385.492 700.945 384.785C700.349 384.423 700.039 383.966 700.039 383.501Z" fill="white"/>
</mask>
<g mask="url(#mask2_1368_1883)">
<path d="M700.039 383.501L700.096 404.235C700.096 404.246 700.096 404.252 700.096 404.261L700.039 383.529C700.039 383.521 700.039 383.512 700.039 383.501Z" fill="#949494"/>
<path d="M700.039 383.528L700.096 404.26C700.096 404.32 700.102 404.384 700.118 404.441L700.061 383.709C700.045 383.654 700.039 383.588 700.039 383.528Z" fill="#999999"/>
<path d="M700.059 383.71L700.116 404.442C700.13 404.502 700.144 404.563 700.159 404.618L700.108 383.89C700.096 383.83 700.066 383.765 700.059 383.71Z" fill="#9E9E9E"/>
<path d="M700.11 383.89L700.16 404.619C700.193 404.674 700.22 404.737 700.266 404.794L700.192 384.057C700.152 384.002 700.138 383.945 700.11 383.89Z" fill="#A3A3A3"/>
<path d="M700.192 384.057L700.266 404.793C700.285 404.861 700.327 404.919 700.363 404.987L700.313 384.246C700.274 384.186 700.237 384.132 700.192 384.057Z" fill="#A8A8A8"/>
<path d="M700.312 384.248L700.362 404.989C700.436 405.057 700.49 405.123 700.576 405.192L700.519 384.463C700.438 384.392 700.364 384.323 700.312 384.248Z" fill="#ADADAD"/>
<path d="M700.519 384.461L700.576 405.19C700.683 405.3 700.825 405.395 700.97 405.483L700.918 384.758C700.752 384.663 700.626 384.569 700.519 384.461Z" fill="#B3B3B3"/>
<path d="M700.923 384.757L700.97 405.483C700.987 405.5 700.994 405.505 701.014 405.51C701.22 405.634 701.454 405.732 701.701 405.819L701.636 385.079C701.391 385.003 701.154 384.899 700.945 384.783C700.937 384.77 700.937 384.764 700.918 384.756H700.923V384.757Z" fill="#B8B8B8"/>
<path d="M701.636 385.079L701.701 405.819C701.89 405.872 702.09 405.929 702.296 405.965L702.239 385.238C702.025 385.194 701.831 385.145 701.636 385.079Z" fill="#B3B3B3"/>
<path d="M702.24 385.237L702.296 405.964C702.432 405.986 702.558 406.007 702.69 406.019L702.643 385.29C702.507 385.275 702.361 385.257 702.24 385.237Z" fill="#ADADAD"/>
<path d="M702.643 385.292L702.69 406.021C702.805 406.03 702.939 406.038 703.04 406.041L702.983 385.314C702.862 385.306 702.756 385.294 702.643 385.292Z" fill="#A8A8A8"/>
<path d="M702.983 385.312L703.04 406.039C703.145 406.039 703.26 406.039 703.364 406.039L703.303 385.312C703.202 385.312 703.088 385.312 702.983 385.312Z" fill="#A3A3A3"/>
<path d="M703.303 385.312L703.364 406.04C703.464 406.036 703.571 406.029 703.675 406.022L703.616 385.293C703.514 385.306 703.407 385.312 703.303 385.312Z" fill="#9E9E9E"/>
<path d="M703.616 385.294L703.674 406.022C703.771 406.019 703.875 406.007 703.98 405.989L703.919 385.264C703.818 385.275 703.723 385.292 703.616 385.294Z" fill="#999999"/>
<path d="M703.919 385.263L703.98 405.989C704.086 405.973 704.194 405.964 704.29 405.942L704.226 385.207C704.128 385.229 704.032 385.246 703.919 385.263Z" fill="#949494"/>
<path d="M704.228 385.207L704.292 405.942C704.399 405.917 704.513 405.893 704.61 405.862L704.563 385.133C704.448 385.16 704.341 385.191 704.228 385.207Z" fill="#8F8F8F"/>
<path d="M704.563 385.133L704.61 405.862C704.746 405.824 704.874 405.777 704.995 405.731L704.944 384.999C704.812 385.051 704.699 385.09 704.563 385.133Z" fill="#8A8A8A"/>
<path d="M704.944 384.999L704.995 405.73C705.162 405.667 705.319 405.59 705.461 405.508L705.398 384.783C705.255 384.866 705.105 384.939 704.944 384.999Z" fill="#858585"/>
</g>
<path d="M700.959 382.206C699.735 382.918 699.735 384.07 700.945 384.785C702.178 385.492 704.16 385.492 705.398 384.785L755.962 355.589C757.186 354.883 757.2 353.726 755.981 353.017C754.748 352.306 752.763 352.306 751.531 353.017L700.959 382.206Z" fill="#DCDCDC"/>
<path d="M657.558 404.793C657.558 404.907 657.575 405.012 657.581 405.121C657.581 405.219 657.596 405.312 657.611 405.413C657.616 405.52 657.651 405.635 657.666 405.743C657.679 405.836 657.701 405.934 657.729 406.03C657.745 406.142 657.78 406.244 657.807 406.353C657.835 406.452 657.865 406.547 657.885 406.638C657.922 406.75 657.958 406.856 657.991 406.961C658.019 407.057 658.062 407.155 658.096 407.241C658.139 407.358 658.189 407.47 658.238 407.58C658.281 407.678 658.33 407.761 658.382 407.859C658.423 407.969 658.484 408.076 658.538 408.183C658.585 408.275 658.629 408.361 658.687 408.458C658.772 408.584 658.843 408.711 658.927 408.839C658.975 408.918 659.026 408.998 659.083 409.078C659.182 409.215 659.287 409.355 659.394 409.497C659.435 409.56 659.48 409.622 659.528 409.686C659.705 409.915 659.895 410.134 660.1 410.349C660.149 410.406 660.212 410.46 660.269 410.521C660.426 410.691 660.596 410.852 660.759 411.016C660.836 411.087 660.916 411.156 660.992 411.232C661.097 411.325 661.198 411.416 661.31 411.514C661.416 411.595 661.516 411.682 661.616 411.762C661.726 411.854 661.842 411.944 661.954 412.027C662.066 412.114 662.173 412.196 662.288 412.287C662.4 412.369 662.542 412.451 662.66 412.53C662.767 412.618 662.887 412.697 663.014 412.778C663.137 412.859 663.271 412.941 663.405 413.024C663.574 413.13 663.744 413.238 663.915 413.338L667.079 415.179L667.149 435.902L663.977 434.068C663.884 434.015 663.794 433.961 663.709 433.904C663.638 433.863 663.553 433.813 663.476 433.762C663.334 433.674 663.2 433.586 663.051 433.503C662.951 433.427 662.838 433.348 662.725 433.274C662.591 433.184 662.466 433.098 662.335 432.995C662.236 432.926 662.131 432.85 662.033 432.767C661.905 432.676 661.786 432.578 661.664 432.485C661.579 432.403 661.472 432.323 661.375 432.245C661.267 432.148 661.162 432.055 661.056 431.962C661.012 431.924 660.963 431.886 660.929 431.844C660.888 431.811 660.856 431.775 660.823 431.745C660.645 431.578 660.483 431.406 660.321 431.242C660.27 431.182 660.221 431.135 660.157 431.075C659.958 430.853 659.76 430.639 659.59 430.412C659.59 430.404 659.577 430.393 659.569 430.384C659.528 430.335 659.492 430.278 659.45 430.226C659.344 430.08 659.239 429.942 659.146 429.802C659.097 429.724 659.042 429.646 658.991 429.571C658.905 429.437 658.827 429.309 658.75 429.178C658.719 429.145 658.7 429.108 658.679 429.068C658.651 429.021 658.629 428.963 658.599 428.909C658.538 428.805 658.486 428.687 658.424 428.581C658.391 428.489 658.331 428.399 658.296 428.312C658.248 428.196 658.197 428.084 658.156 427.972C658.134 427.92 658.114 427.873 658.098 427.821C658.084 427.781 658.063 427.731 658.057 427.69C658.007 427.587 657.992 427.477 657.952 427.37C657.917 427.272 657.887 427.176 657.866 427.08C657.835 426.975 657.808 426.869 657.781 426.759C657.772 426.705 657.751 426.642 657.739 426.587C657.739 426.543 657.739 426.508 657.725 426.463C657.703 426.359 657.681 426.252 657.676 426.143C657.668 426.047 657.652 425.948 657.633 425.847C657.618 425.743 657.618 425.639 657.613 425.522C657.603 425.461 657.597 425.393 657.591 425.325C657.591 425.267 657.591 425.19 657.591 425.132C657.583 418.219 657.559 411.31 657.534 404.403C657.531 404.534 657.536 404.671 657.558 404.793Z" fill="#85A9FF"/>
<path d="M664.019 395.341C655.414 400.309 655.355 408.37 663.915 413.338L667.078 415.18L809.461 332.975L806.289 331.137C797.74 326.167 783.841 326.167 775.231 331.137L664.019 395.341Z" fill="#C3DFF4"/>
<path d="M705.398 384.783C704.16 385.491 702.178 385.491 700.945 384.783C699.733 384.068 699.733 382.917 700.959 382.205L751.531 353.015C752.763 352.305 754.748 352.305 755.981 353.015C757.2 353.724 757.188 354.88 755.962 355.588L705.398 384.783Z" fill="#4A79D8"/>
<path d="M705.398 384.783L755.962 355.587C756.159 355.474 756.273 355.332 756.408 355.197C756.277 355.069 756.173 354.937 755.981 354.822C754.748 354.113 752.763 354.113 751.531 354.822L700.959 384.017C700.762 384.131 700.654 384.27 700.521 384.402C700.649 384.531 700.753 384.666 700.947 384.781C702.178 385.49 704.16 385.49 705.398 384.783Z" fill="#85A9FF"/>
<path d="M667.079 415.18L667.149 435.902L809.523 353.704L809.46 332.977L667.079 415.18Z" fill="#338789"/>
<path d="M852.485 522.925L852.543 543.659L994.919 461.459L994.855 440.724L852.485 522.925Z" fill="#898989"/>
<mask id="mask3_1368_1883" style="mask-type:luminance" maskUnits="userSpaceOnUse" x="926" y="481" width="10" height="24">
<path d="M926.838 504.361C929.166 503.016 932.194 502.349 935.239 502.349C935.212 495.437 935.196 488.528 935.174 481.619C932.145 481.619 929.108 482.293 926.786 483.628C926.796 489.845 926.822 498.137 926.838 504.361Z" fill="white"/>
</mask>
<g mask="url(#mask3_1368_1883)">
<path d="M926.786 483.626L926.838 504.359C927.371 504.052 927.941 503.775 928.544 503.537L928.5 482.81C927.883 483.046 927.32 483.32 926.786 483.626Z" fill="#318385"/>
<path d="M928.5 482.81L928.544 503.537C929.02 503.359 929.502 503.19 929.992 503.057L929.94 482.32C929.436 482.462 928.96 482.629 928.5 482.81Z" fill="#33888A"/>
<path d="M929.94 482.32L929.992 503.056C930.39 502.934 930.808 502.833 931.216 502.748L931.165 482.021C930.745 482.106 930.345 482.203 929.94 482.32Z" fill="#358D8F"/>
<path d="M931.166 482.021L931.216 502.748C931.614 502.666 932.005 502.601 932.405 502.554L932.36 481.817C931.947 481.868 931.55 481.939 931.166 482.021Z" fill="#379294"/>
<path d="M932.36 481.817L932.405 502.554C932.782 502.494 933.172 502.452 933.562 502.419L933.495 481.691C933.113 481.717 932.725 481.761 932.36 481.817Z" fill="#399799"/>
<path d="M933.497 481.691L933.563 502.418C933.944 502.39 934.341 502.368 934.73 502.352L934.666 481.626C934.27 481.636 933.886 481.649 933.497 481.691Z" fill="#3B9C9E"/>
<path d="M934.666 481.627L934.73 502.352C935.125 502.343 935.537 502.343 935.946 502.359L935.867 481.627C935.478 481.617 935.072 481.608 934.666 481.627Z" fill="#3DA1A3"/>
</g>
<mask id="mask4_1368_1883" style="mask-type:luminance" maskUnits="userSpaceOnUse" x="935" y="481" width="13" height="29">
<path d="M943.604 504.361C945.897 505.687 947.044 507.436 947.053 509.181L946.989 488.444C946.979 486.701 945.841 484.957 943.549 483.626C941.242 482.29 938.213 481.617 935.176 481.617C935.198 488.526 935.212 495.435 935.241 502.348C938.278 502.348 941.307 503.015 943.604 504.361Z" fill="white"/>
</mask>
<g mask="url(#mask4_1368_1883)">
<path d="M934.666 481.627L934.73 502.352C935.125 502.343 935.537 502.343 935.946 502.359L935.867 481.627C935.478 481.617 935.072 481.608 934.666 481.627Z" fill="#3DA1A3"/>
<path d="M935.869 481.626L935.948 502.358C936.376 502.377 936.819 502.407 937.257 502.451L937.2 481.718C936.76 481.671 936.321 481.644 935.869 481.626Z" fill="#3FA6A8"/>
<path d="M937.198 481.717L937.255 502.45C937.773 502.493 938.276 502.568 938.763 502.65L938.706 481.928C938.219 481.84 937.701 481.767 937.198 481.717Z" fill="#41ABAD"/>
<path d="M938.706 481.927L938.763 502.65C939.539 502.796 940.3 502.988 941.014 503.212L940.949 482.483C940.236 482.247 939.483 482.067 938.706 481.927Z" fill="#43B0B3"/>
<path d="M940.949 482.485L941.014 503.214C941.942 503.521 942.819 503.9 943.602 504.36C943.646 504.382 943.701 504.416 943.755 504.441L943.681 483.712C943.648 483.68 943.596 483.654 943.547 483.627C942.756 483.165 941.885 482.784 940.949 482.485Z" fill="#44B5B8"/>
<path d="M943.681 483.711L943.755 504.44C944.325 504.788 944.829 505.161 945.253 505.552L945.187 484.823C944.766 484.429 944.27 484.056 943.681 483.711Z" fill="#43B0B3"/>
<path d="M945.188 484.823L945.254 505.552C945.53 505.807 945.776 506.073 945.984 506.341L945.929 485.612C945.714 485.34 945.464 485.078 945.188 484.823Z" fill="#41ABAD"/>
<path d="M945.927 485.612L945.982 506.341C946.171 506.576 946.33 506.809 946.456 507.053L946.4 486.318C946.272 486.088 946.108 485.844 945.927 485.612Z" fill="#3FA6A8"/>
<path d="M946.4 486.318L946.456 507.053C946.582 507.269 946.693 507.507 946.789 507.73L946.719 486.995C946.641 486.768 946.527 486.545 946.4 486.318Z" fill="#3DA1A3"/>
<path d="M946.72 486.996L946.789 507.731C946.86 507.945 946.925 508.165 946.967 508.392L946.909 487.663C946.86 487.433 946.811 487.218 946.72 486.996Z" fill="#3B9C9E"/>
<path d="M946.908 487.663L946.967 508.392C947.02 508.622 947.042 508.852 947.052 509.076L946.987 488.348C946.978 488.114 946.957 487.887 946.908 487.663Z" fill="#399799"/>
<path d="M946.987 488.347L947.052 509.074C947.052 509.105 947.052 509.134 947.052 509.179L946.987 488.443C946.987 488.418 946.987 488.373 946.987 488.347Z" fill="#379294"/>
</g>
<mask id="mask5_1368_1883" style="mask-type:luminance" maskUnits="userSpaceOnUse" x="923" y="483" width="4" height="27">
<path d="M923.339 509.247C923.339 507.48 924.508 505.709 926.838 504.359L926.786 483.625C924.453 484.977 923.275 486.745 923.284 488.509C923.297 494.739 923.335 503.026 923.339 509.247Z" fill="white"/>
</mask>
<g mask="url(#mask5_1368_1883)">
<path d="M923.284 488.509L923.339 509.247C923.339 507.48 924.508 505.709 926.838 504.359L926.786 483.625C924.451 484.979 923.275 486.746 923.284 488.509Z" fill="#318385"/>
</g>
<mask id="mask6_1368_1883" style="mask-type:luminance" maskUnits="userSpaceOnUse" x="923" y="488" width="25" height="29">
<path d="M923.285 488.509C923.315 495.424 923.333 502.337 923.349 509.247C923.349 510.983 924.488 512.736 926.786 514.064C931.41 516.747 938.905 516.747 943.549 514.064C945.893 512.716 947.06 510.952 947.054 509.181C947.035 502.266 947.017 495.35 946.989 488.444C946.997 490.215 945.834 491.987 943.492 493.342C938.845 496.02 931.352 496.02 926.738 493.332C924.438 492.009 923.293 490.256 923.285 488.509Z" fill="white"/>
</mask>
<g mask="url(#mask6_1368_1883)">
<path d="M923.285 488.509L923.349 509.248C923.349 509.276 923.349 509.309 923.349 509.351L923.285 488.616C923.285 488.58 923.285 488.552 923.285 488.509Z" fill="#949494"/>
<path d="M923.285 488.616L923.349 509.351C923.352 509.578 923.384 509.805 923.428 510.032L923.368 489.298C923.319 489.073 923.293 488.851 923.285 488.616Z" fill="#999999"/>
<path d="M923.368 489.298L923.428 510.032C923.471 510.254 923.529 510.481 923.617 510.698L923.56 489.969C923.474 489.754 923.411 489.52 923.368 489.298Z" fill="#9E9E9E"/>
<path d="M923.56 489.969L923.617 510.698C923.704 510.93 923.806 511.145 923.927 511.366L923.871 490.634C923.752 490.418 923.645 490.196 923.56 489.969Z" fill="#A3A3A3"/>
<path d="M923.871 490.634L923.927 511.366C924.068 511.609 924.225 511.845 924.409 512.083L924.361 491.354C924.17 491.121 924.011 490.878 923.871 490.634Z" fill="#A8A8A8"/>
<path d="M924.361 491.354L924.409 512.083C924.624 512.351 924.869 512.606 925.148 512.873L925.084 492.145C924.813 491.881 924.567 491.622 924.361 491.354Z" fill="#ADADAD"/>
<path d="M925.084 492.145L925.148 512.872C925.566 513.261 926.068 513.632 926.64 513.983L926.58 493.252C926.016 492.906 925.504 492.529 925.084 492.145Z" fill="#B3B3B3"/>
<path d="M926.58 493.252L926.64 513.982C926.694 514.008 926.736 514.041 926.786 514.064C927.582 514.529 928.458 514.91 929.392 515.213L929.327 494.476C928.401 494.177 927.524 493.792 926.736 493.334C926.684 493.302 926.634 493.279 926.58 493.252Z" fill="#B8B8B8"/>
<path d="M929.327 494.477L929.392 515.213C930.107 515.44 930.858 515.629 931.636 515.771L931.58 495.036C930.809 494.905 930.044 494.713 929.327 494.477Z" fill="#B3B3B3"/>
<path d="M931.58 495.037L931.637 515.772C932.139 515.857 932.64 515.922 933.152 515.98L933.081 495.251C932.584 495.196 932.075 495.125 931.58 495.037Z" fill="#ADADAD"/>
<path d="M933.081 495.25L933.152 515.978C933.584 516.022 934.017 516.051 934.459 516.067L934.395 495.338C933.966 495.324 933.524 495.29 933.081 495.25Z" fill="#A8A8A8"/>
<path d="M934.395 495.338L934.459 516.067C934.863 516.082 935.274 516.082 935.679 516.067L935.606 495.344C935.212 495.35 934.806 495.344 934.395 495.338Z" fill="#A3A3A3"/>
<path d="M935.606 495.344L935.679 516.067C936.065 516.062 936.454 516.043 936.844 516.005L936.773 495.275C936.394 495.313 935.995 495.338 935.606 495.344Z" fill="#9E9E9E"/>
<path d="M936.775 495.275L936.846 516.005C937.229 515.978 937.602 515.933 937.993 515.877L937.931 495.146C937.553 495.207 937.172 495.246 936.775 495.275Z" fill="#999999"/>
<path d="M937.929 495.145L937.991 515.877C938.38 515.827 938.769 515.756 939.16 515.68L939.101 494.953C938.722 495.026 938.323 495.095 937.929 495.145Z" fill="#949494"/>
<path d="M939.102 494.953L939.16 515.681C939.576 515.591 939.986 515.492 940.397 515.377L940.34 494.642C939.938 494.75 939.521 494.857 939.102 494.953Z" fill="#8F8F8F"/>
<path d="M940.34 494.64L940.397 515.375C940.893 515.233 941.375 515.072 941.835 514.883L941.776 494.164C941.321 494.344 940.836 494.507 940.34 494.64Z" fill="#8A8A8A"/>
<path d="M941.777 494.166L941.835 514.885C942.43 514.65 943.008 514.376 943.547 514.064C945.891 512.716 947.058 510.952 947.052 509.181L946.988 488.444C946.995 490.215 945.833 491.987 943.491 493.342C942.955 493.647 942.388 493.918 941.777 494.166Z" fill="#858585"/>
</g>
<path d="M926.786 483.626C922.138 486.303 922.116 490.655 926.737 493.333C931.351 496.021 938.845 496.021 943.492 493.343C948.134 490.655 948.166 486.303 943.549 483.626C938.944 480.95 931.424 480.95 926.786 483.626Z" fill="#85A9FF"/>
<path d="M926.786 483.626C922.138 486.303 922.116 490.655 926.737 493.333C931.351 496.021 938.845 496.021 943.492 493.343C948.134 490.655 948.166 486.303 943.549 483.626C938.944 480.95 931.424 480.95 926.786 483.626Z" fill="#85A9FF"/>
<path d="M926.786 483.626C922.138 486.303 922.116 490.655 926.737 493.333C931.351 496.021 938.845 496.021 943.492 493.343C948.134 490.655 948.166 486.303 943.549 483.626C938.944 480.95 931.424 480.95 926.786 483.626Z" fill="#85A9FF"/>
<path d="M928.566 484.713C932.968 482.172 939.944 482.075 944.584 484.364C944.256 484.113 943.939 483.855 943.549 483.626C938.944 480.95 931.425 480.95 926.786 483.626C922.138 486.303 922.116 490.655 926.737 493.333C926.963 493.467 927.235 493.565 927.473 493.688C923.981 490.994 924.31 487.164 928.566 484.713Z" fill="#4A79D8"/>
<path d="M945.324 484.713C945.093 484.581 944.828 484.483 944.582 484.363C948.076 487.052 947.737 490.89 943.49 493.342C939.072 495.885 932.117 495.984 927.472 493.687C927.799 493.936 928.118 494.193 928.516 494.426C933.13 497.109 940.617 497.109 945.264 494.426C949.911 491.743 949.94 487.396 945.324 484.713Z" fill="#85A9FF"/>
<path d="M667.079 415.18L667.149 435.902L852.543 543.659L852.485 522.926L667.079 415.18Z" fill="#C3DFF4"/>
<path d="M667.079 415.18L852.485 522.926L994.855 440.724L809.46 332.977L667.079 415.18Z" fill="#E3F1FE"/>
<path d="M1006.23 465.376L895.023 529.587C886.416 534.562 872.5 534.562 863.956 529.587L852.483 522.925L994.853 440.724L1006.32 447.385C1014.89 452.354 1014.84 460.41 1006.23 465.376ZM926.786 483.626C922.138 486.302 922.116 490.655 926.738 493.332C931.351 496.02 938.845 496.02 943.492 493.342C948.134 490.655 948.166 486.302 943.549 483.626C938.944 480.949 931.424 480.949 926.786 483.626Z" fill="#C3DFF4"/>
<path d="M1012.72 456.317C1012.73 459.598 1010.56 462.881 1006.24 465.376L895.024 529.587C894.501 529.886 893.955 530.165 893.41 530.43C893.232 530.513 893.049 530.582 892.871 530.661C892.474 530.831 892.085 531.014 891.675 531.17C891.548 531.217 891.423 531.261 891.3 531.307C890.858 531.472 890.417 531.617 889.949 531.767C889.799 531.813 889.648 531.863 889.506 531.906C889.215 531.992 888.917 532.068 888.607 532.143C888.174 532.262 887.715 532.377 887.266 532.473C886.956 532.537 886.649 532.602 886.348 532.662C885.959 532.736 885.568 532.808 885.179 532.87C884.861 532.922 884.528 532.961 884.21 533.004C883.845 533.049 883.465 533.095 883.104 533.122C882.759 533.158 882.427 533.186 882.082 533.211C881.721 533.234 881.346 533.257 880.984 533.274C880.644 533.287 880.311 533.293 879.963 533.297C879.552 533.306 879.157 533.297 878.769 533.293C878.449 533.29 878.13 533.279 877.821 533.268C877.325 533.246 876.821 533.211 876.32 533.17C876.03 533.142 875.74 533.122 875.447 533.093C875.285 533.078 875.145 533.057 874.996 533.043C874.485 532.986 873.98 532.907 873.484 532.829C873.363 532.807 873.226 532.786 873.114 532.769C872.81 532.711 872.511 532.649 872.226 532.583C871.819 532.504 871.408 532.421 871.011 532.326C870.707 532.254 870.433 532.175 870.142 532.096C869.765 531.991 869.382 531.887 869.022 531.772C868.475 531.603 867.952 531.427 867.437 531.231C867.372 531.206 867.325 531.179 867.245 531.157C866.763 530.967 866.298 530.765 865.852 530.551C865.706 530.491 865.575 530.426 865.425 530.365C864.929 530.119 864.434 529.855 863.959 529.584L852.486 522.922L852.544 543.655L864.019 550.317C864.49 550.593 864.981 550.848 865.49 551.095C865.632 551.16 865.772 551.223 865.907 551.284C866.361 551.491 866.821 551.696 867.286 551.877C867.35 551.907 867.432 551.933 867.5 551.966C867.931 552.127 868.379 552.286 868.826 552.433C868.91 552.46 868.988 552.478 869.066 552.502C869.447 552.622 869.828 552.724 870.217 552.823C870.498 552.905 870.775 552.992 871.065 553.058C871.463 553.148 871.866 553.23 872.282 553.318C872.515 553.364 872.741 553.422 872.983 553.469C873.049 553.476 873.111 553.487 873.172 553.501C873.294 553.518 873.421 553.535 873.539 553.55C874.036 553.636 874.546 553.702 875.048 553.764C875.206 553.786 875.351 553.798 875.508 553.814C875.6 553.833 875.691 553.847 875.786 553.857C875.984 553.873 876.183 553.879 876.38 553.89C876.876 553.932 877.37 553.977 877.873 553.991C877.985 553.995 878.103 554.014 878.229 554.014C878.418 554.017 878.607 554.014 878.802 554.017C879.22 554.027 879.629 554.027 880.04 554.027C880.182 554.017 880.33 554.027 880.477 554.027C880.644 554.017 880.839 554.008 881.014 553.995C881.397 553.98 881.761 553.969 882.15 553.932C882.304 553.932 882.468 553.923 882.636 553.913C882.814 553.895 882.983 553.871 883.161 553.855C883.522 553.813 883.911 553.78 884.264 553.731C884.434 553.704 884.606 553.699 884.768 553.672C884.924 553.654 885.078 553.619 885.226 553.597C885.625 553.532 886.011 553.458 886.4 553.379C886.584 553.351 886.761 553.331 886.946 553.298C887.074 553.264 887.194 553.227 887.313 553.201C887.773 553.101 888.229 552.987 888.665 552.866C888.856 552.82 889.048 552.786 889.238 552.73C889.346 552.704 889.453 552.663 889.557 552.633C889.714 552.587 889.859 552.535 890.017 552.486C890.47 552.351 890.914 552.193 891.348 552.029C891.477 551.984 891.601 551.943 891.732 551.897C891.797 551.869 891.85 551.851 891.915 551.834C892.253 551.697 892.579 551.543 892.904 551.392C893.093 551.313 893.288 551.234 893.463 551.152C894.018 550.892 894.561 550.607 895.086 550.314L1006.29 486.102C1010.63 483.597 1012.78 480.321 1012.77 477.043C1012.75 470.14 1012.74 463.231 1012.72 456.317Z" fill="#85A9FF"/>
<path opacity="0.505" d="M663.693 413.784L666.858 415.623L852.109 523.279L863.568 529.939C872.118 534.909 886.011 534.909 894.611 529.939L1005.74 465.781C1014.34 460.817 1014.38 452.769 1005.84 447.802L994.379 441.142L809.124 333.484L805.954 331.647C797.413 326.681 783.523 326.681 774.914 331.647L663.808 395.8C655.187 400.768 655.144 408.821 663.693 413.784Z" fill="#E3F1FE"/>
<path opacity="0.4208" d="M663.693 399.27L666.858 401.108L852.109 508.766L863.568 515.424C872.118 520.394 886.011 520.394 894.611 515.424L1005.74 451.267C1014.34 446.304 1014.38 438.256 1005.84 433.287L994.379 426.627L809.124 318.971L805.954 317.134C797.413 312.169 783.523 312.169 774.914 317.134L663.808 381.288C655.187 386.252 655.144 394.304 663.693 399.27Z" fill="#E3F1FE"/>
<path opacity="0.3366" d="M663.693 384.756L666.858 386.594L852.109 494.25L863.568 500.91C872.118 505.88 886.011 505.88 894.611 500.91L1005.74 436.753C1014.34 431.79 1014.38 423.74 1005.84 418.773L994.379 412.111L809.124 304.455L805.954 302.617C797.413 297.652 783.523 297.652 774.914 302.617L663.808 366.771C655.187 371.738 655.144 379.789 663.693 384.756Z" fill="#E3F1FE"/>
<path opacity="0.2525" d="M663.693 370.239L666.858 372.077L852.109 479.735L863.568 486.394C872.118 491.364 886.011 491.364 894.611 486.394L1005.74 422.238C1014.34 417.275 1014.38 409.225 1005.84 404.257L994.379 397.598L809.124 289.94L805.954 288.102C797.413 283.138 783.523 283.138 774.914 288.102L663.808 352.256C655.187 357.221 655.144 365.272 663.693 370.239Z" fill="#E3F1FE"/>
<path opacity="0.1683" d="M663.693 355.723L666.858 357.562L852.109 465.221L863.568 471.878C872.118 476.848 886.011 476.848 894.611 471.878L1005.74 407.723C1014.34 402.759 1014.38 394.709 1005.84 389.741L994.379 383.081L809.124 275.425L805.954 273.585C797.413 268.623 783.523 268.623 774.914 273.585L663.808 337.74C655.187 342.705 655.144 350.757 663.693 355.723Z" fill="#E3F1FE"/>
<path opacity="0.0842" d="M663.693 341.209L666.858 343.047L852.109 450.705L863.568 457.364C872.118 462.334 886.011 462.334 894.611 457.364L1005.74 393.208C1014.34 388.245 1014.38 380.195 1005.84 375.225L994.379 368.565L809.124 260.909L805.954 259.067C797.413 254.105 783.523 254.105 774.914 259.067L663.808 323.223C655.187 328.191 655.144 336.241 663.693 341.209Z" fill="#E3F1FE"/>
<path opacity="0.3" d="M809.571 332.953L806.408 331.111C797.852 326.143 783.952 326.143 775.351 331.111L664.139 395.32C662.68 396.155 661.564 397.105 660.601 398.091L1004.03 445.961L994.973 440.697L809.571 332.953Z" fill="white"/>
<g opacity="0.1">
<path d="M845.797 509.909L695.148 422.366L822.271 348.598L975.008 437.198L845.797 509.909Z" fill="black"/>
</g>
<mask id="mask7_1368_1883" style="mask-type:luminance" maskUnits="userSpaceOnUse" x="811" y="192" width="17" height="179">
<path d="M827.558 194.415L827.063 370.245C822.841 367.811 816.017 367.811 811.826 370.245L812.325 194.415C816.509 191.98 823.346 191.98 827.558 194.415Z" fill="white"/>
</mask>
<g mask="url(#mask7_1368_1883)">
<path d="M827.558 194.415L827.063 370.245C826.578 369.966 826.049 369.717 825.51 369.505L826.006 193.671C826.551 193.884 827.071 194.133 827.558 194.415Z" fill="#6E0049"/>
<path d="M826.006 193.671L825.51 369.504C825.086 369.334 824.651 369.191 824.202 369.059L824.702 193.23C825.146 193.356 825.59 193.502 826.006 193.671Z" fill="#72004C"/>
<path d="M824.702 193.23L824.202 369.059C823.837 368.958 823.462 368.867 823.081 368.786L823.571 192.953C823.957 193.032 824.332 193.128 824.702 193.23Z" fill="#76004F"/>
<path d="M823.571 192.953L823.081 368.786C822.731 368.717 822.378 368.651 822.003 368.602L822.517 192.77C822.868 192.819 823.232 192.88 823.571 192.953Z" fill="#18F180"/>
<path d="M822.519 192.77L822.003 368.601C821.668 368.548 821.314 368.515 820.961 368.482L821.463 192.65C821.807 192.68 822.161 192.718 822.519 192.77Z" fill="#18F180"/>
<path d="M821.465 192.65L820.962 368.482C820.609 368.452 820.253 368.436 819.902 368.422L820.403 192.594C820.756 192.602 821.112 192.619 821.465 192.65Z" fill="#00DC46"/>
<path d="M820.403 192.595L819.902 368.424C819.529 368.419 819.154 368.419 818.798 368.43L819.291 192.603C819.659 192.584 820.029 192.584 820.403 192.595Z" fill="#00DC46"/>
<path d="M819.289 192.602L818.796 368.429C818.391 368.447 817.999 368.471 817.585 368.509L818.098 192.679C818.489 192.639 818.889 192.613 819.289 192.602Z" fill="#18F180"/>
<path d="M818.1 192.68L817.586 368.51C817.137 368.559 816.677 368.624 816.224 368.699L816.717 192.869C817.17 192.79 817.629 192.724 818.1 192.68Z" fill="#18F180"/>
<path d="M816.715 192.869L816.222 368.699C815.515 368.828 814.833 368.995 814.184 369.208L814.677 193.376C815.335 193.165 816.019 192.995 816.715 192.869Z" fill="#00DC46"/>
<path d="M814.677 193.377L814.184 369.209C813.333 369.486 812.541 369.831 811.826 370.247L812.325 194.417C813.042 193.999 813.828 193.654 814.677 193.377Z" fill="#18F180"/>
</g>
<mask id="mask8_1368_1883" style="mask-type:luminance" maskUnits="userSpaceOnUse" x="808" y="194" width="5" height="181">
<path d="M808.681 374.644L809.181 198.81C809.181 197.218 810.234 195.63 812.325 194.416L811.825 370.246C809.732 371.46 808.681 373.053 808.681 374.644Z" fill="white"/>
</mask>
<g mask="url(#mask8_1368_1883)">
<path d="M812.326 194.416L811.827 370.246C811.775 370.272 811.731 370.301 811.691 370.329L812.184 194.494C812.233 194.464 812.277 194.441 812.326 194.416Z" fill="#18F180"/>
<path d="M812.183 194.494L811.69 370.328C811.167 370.642 810.707 370.981 810.323 371.343L810.821 195.505C811.21 195.147 811.67 194.81 812.183 194.494Z" fill="#00DC46"/>
<path d="M810.82 195.505L810.323 371.343C810.067 371.57 809.841 371.814 809.652 372.063L810.143 196.228C810.354 195.984 810.567 195.743 810.82 195.505Z" fill="#18F180"/>
<path d="M810.143 196.229L809.651 372.063C809.491 372.271 809.338 372.489 809.213 372.703L809.708 196.876C809.831 196.655 809.981 196.436 810.143 196.229Z" fill="#18F180"/>
<path d="M809.709 196.876L809.214 372.703C809.099 372.909 808.998 373.111 808.938 373.317L809.431 197.487C809.504 197.284 809.601 197.074 809.709 196.876Z" fill="#00DC46"/>
<path d="M809.431 197.489L808.938 373.319C808.851 373.521 808.791 373.727 808.75 373.93L809.247 198.098C809.291 197.895 809.352 197.692 809.431 197.489Z" fill="#00DC46"/>
<path d="M809.248 198.097L808.752 373.928C808.713 374.13 808.688 374.34 808.683 374.543L809.182 198.714C809.193 198.509 809.214 198.3 809.248 198.097Z" fill="#18F180"/>
<path d="M809.182 198.716L808.683 374.544C808.683 374.579 808.683 374.614 808.683 374.644L809.182 198.81C809.182 198.779 809.182 198.746 809.182 198.716Z" fill="#18F180"/>
</g>
<mask id="mask9_1368_1883" style="mask-type:luminance" maskUnits="userSpaceOnUse" x="808" y="198" width="5" height="182">
<path d="M808.681 374.644L809.181 198.811C809.173 200.419 810.234 202.026 812.348 203.251L811.855 379.08C809.732 377.862 808.673 376.249 808.681 374.644Z" fill="white"/>
</mask>
<g mask="url(#mask9_1368_1883)">
<path d="M812.348 203.251L811.855 379.08C809.732 377.862 808.673 376.249 808.681 374.644L809.181 198.811C809.174 200.419 810.236 202.026 812.348 203.251Z" fill="#858585"/>
</g>
<path d="M938.179 258.283L937.679 434.113L827.063 370.246L827.558 194.416L938.179 258.283Z" fill="#71004C"/>
<path d="M945.965 253.758L945.474 429.593L937.679 434.113L938.179 258.282L945.965 253.758Z" fill="#3B07AB"/>
<path d="M938.179 258.282L937.679 434.112L934.552 433.159L922.483 440.434L922.977 267.116L938.179 258.282Z" fill="#DCDCDC"/>
<path d="M922.977 267.117L922.483 442.951L811.855 379.08L812.349 203.251L922.977 267.117Z" fill="#898989"/>
<path d="M938.178 258.282L922.977 267.116L812.348 203.251C808.138 200.815 808.116 196.857 812.325 194.415C816.507 191.98 823.344 191.98 827.556 194.415L938.178 258.282Z" fill="#3B07AB"/>
<path d="M812.349 203.251L922.977 267.117L935.055 260.101L824.102 196.244C820.57 194.201 815.228 193.894 811.118 195.271C808.193 197.709 808.6 201.08 812.349 203.251Z" fill="white"/>
<path d="M922.977 267.116L922.483 442.951L914.693 447.469L915.187 271.642L922.977 267.116Z" fill="#3B07AB"/>
<path d="M800.923 205.664C796.629 203.187 794.484 199.927 794.493 196.673L793.991 372.501C793.979 375.757 796.133 379.018 800.432 381.496L914.693 447.471L915.188 271.642L800.923 205.664Z" fill="#3B07AB"/>
<path d="M945.965 253.758L938.18 258.281L827.558 194.415C823.345 191.98 816.509 191.98 812.326 194.415C808.117 196.857 808.139 200.816 812.35 203.251L922.979 267.117L915.189 271.642L800.926 205.664C792.39 200.737 792.343 192.725 800.833 187.782C809.326 182.851 823.153 182.851 831.691 187.782L945.965 253.758Z" fill="#3B07AB"/>
<path d="M812.327 194.416C816.509 191.98 823.345 191.98 827.558 194.416L938.18 258.281L944.256 254.756L831.69 189.772C823.152 184.844 809.324 184.844 800.832 189.772C797.042 191.98 795.04 194.805 794.662 197.692C795.057 200.597 797.084 203.447 800.925 205.664L915.188 271.643L922.977 267.117L813.13 203.705C810.573 202.221 809.831 201.071 809.351 199.805C808.629 197.96 809.792 195.882 812.327 194.416Z" fill="#5100FF"/>
<path d="M938.178 258.282L937.679 434.112L934.552 433.159L935.055 260.1L938.178 258.282Z" fill="#3B07AB"/>
<path d="M929.384 305.117L929.858 395.429L930.816 361.572L931.636 264.642L929.384 305.117Z" fill="#AEB9E5"/>
<path d="M853.639 222.522L927.237 264.642L924.655 266.143L853.639 222.522Z" fill="#C2CAF9"/>
<path d="M927.237 264.642L926.101 325.691L924.655 266.143L927.237 264.642Z" fill="#AEB9E5"/>
<path d="M853.639 222.522L927.237 264.642L925.945 265.391L853.639 222.522Z" fill="#AEB9E5"/>
<path d="M925.945 265.392L926.541 302.36L927.237 264.642L925.945 265.392Z" fill="#8B9ACC"/>
<path d="M925.945 346.196L924.655 439.119L927.237 437.571L925.945 346.196Z" fill="#8B9ACC"/>
<path opacity="0.1" d="M794.493 196.673L793.99 372.501C793.99 373.777 794.417 375.044 795.077 376.276L915.186 271.642L800.923 205.664C796.631 203.187 794.485 199.927 794.493 196.673Z" fill="white"/>
<mask id="mask10_1368_1883" style="mask-type:luminance" maskUnits="userSpaceOnUse" x="771" y="218" width="17" height="179">
<path d="M787.377 220.637L786.875 396.468C782.669 394.031 775.832 394.031 771.644 396.468L772.138 220.637C776.333 218.201 783.159 218.201 787.377 220.637Z" fill="white"/>
</mask>
<g mask="url(#mask10_1368_1883)">
<path d="M787.377 220.637L786.875 396.469C786.393 396.188 785.875 395.939 785.334 395.722L785.837 219.894C786.377 220.105 786.895 220.354 787.377 220.637Z" fill="#6E0049"/>
<path d="M785.837 219.892L785.334 395.72C784.914 395.553 784.473 395.411 784.022 395.284L784.525 219.454C784.972 219.578 785.404 219.726 785.837 219.892Z" fill="#72004C"/>
<path d="M784.525 219.455L784.022 395.285C783.661 395.177 783.274 395.09 782.897 395.01L783.398 219.175C783.775 219.254 784.158 219.35 784.525 219.455Z" fill="#76004F"/>
<path d="M783.399 219.174L782.898 395.009C782.549 394.935 782.19 394.872 781.83 394.825L782.332 218.992C782.691 219.039 783.046 219.102 783.399 219.174Z" fill="#18F180"/>
<path d="M782.334 218.99L781.831 394.823C781.483 394.77 781.138 394.737 780.781 394.704L781.283 218.872C781.63 218.902 781.982 218.938 782.334 218.99Z" fill="#18F180"/>
<path d="M781.283 218.873L780.78 394.704C780.429 394.673 780.067 394.657 779.727 394.646L780.223 218.816C780.577 218.824 780.928 218.841 781.283 218.873Z" fill="#00DC46"/>
<path d="M780.223 218.816L779.727 394.646C779.355 394.639 778.985 394.639 778.613 394.652L779.116 218.823C779.487 218.805 779.857 218.805 780.223 218.816Z" fill="#00DC46"/>
<path d="M779.115 218.824L778.613 394.652C778.21 394.668 777.817 394.692 777.413 394.729L777.915 218.902C778.32 218.862 778.709 218.835 779.115 218.824Z" fill="#18F180"/>
<path d="M777.915 218.902L777.412 394.729C776.952 394.778 776.5 394.841 776.048 394.921L776.543 219.091C776.992 219.009 777.455 218.944 777.915 218.902Z" fill="#18F180"/>
<path d="M776.543 219.091L776.048 394.921C775.341 395.051 774.656 395.219 774.01 395.429L774.5 219.597C775.155 219.387 775.843 219.219 776.543 219.091Z" fill="#00DC46"/>
<path d="M774.498 219.599L774.008 395.43C773.159 395.709 772.359 396.053 771.642 396.468L772.137 220.637C772.86 220.219 773.652 219.874 774.498 219.599Z" fill="#18F180"/>
</g>
<mask id="mask11_1368_1883" style="mask-type:luminance" maskUnits="userSpaceOnUse" x="768" y="220" width="5" height="181">
<path d="M768.503 400.866L768.996 225.034C768.996 223.438 770.062 221.853 772.138 220.636L771.644 396.467C769.55 397.68 768.503 399.275 768.503 400.866Z" fill="white"/>
</mask>
<g mask="url(#mask11_1368_1883)">
<path d="M772.138 220.637L771.644 396.469C771.598 396.497 771.554 396.521 771.518 396.549L772.011 220.718C772.057 220.688 772.096 220.659 772.138 220.637Z" fill="#18F180"/>
<path d="M772.009 220.715L771.516 396.547C770.985 396.864 770.525 397.204 770.142 397.565L770.639 221.728C771.029 221.371 771.489 221.03 772.009 220.715Z" fill="#00DC46"/>
<path d="M770.64 221.729L770.144 397.565C769.887 397.793 769.662 398.038 769.473 398.282L769.966 222.447C770.164 222.207 770.387 221.963 770.64 221.729Z" fill="#18F180"/>
<path d="M769.964 222.448L769.471 398.283C769.301 398.496 769.158 398.708 769.03 398.924L769.533 223.096C769.656 222.877 769.805 222.661 769.964 222.448Z" fill="#18F180"/>
<path d="M769.534 223.096L769.032 398.925C768.928 399.133 768.827 399.336 768.748 399.542L769.249 223.711C769.326 223.504 769.416 223.298 769.534 223.096Z" fill="#00DC46"/>
<path d="M769.249 223.709L768.748 399.541C768.677 399.741 768.624 399.942 768.581 400.152L769.074 224.317C769.115 224.115 769.18 223.914 769.249 223.709Z" fill="#00DC46"/>
<path d="M769.073 224.317L768.58 400.152C768.537 400.35 768.512 400.563 768.503 400.768L768.996 224.938C769.002 224.731 769.03 224.526 769.073 224.317Z" fill="#18F180"/>
<path d="M768.996 224.938L768.503 400.768C768.503 400.801 768.503 400.834 768.503 400.867L768.996 225.035C768.996 224.999 768.996 224.972 768.996 224.938Z" fill="#18F180"/>
</g>
<mask id="mask12_1368_1883" style="mask-type:luminance" maskUnits="userSpaceOnUse" x="768" y="225" width="5" height="181">
<path d="M768.503 400.865L768.996 225.034C768.996 226.639 770.062 228.246 772.178 229.473L771.68 405.301C769.55 404.084 768.493 402.472 768.503 400.865Z" fill="white"/>
</mask>
<g mask="url(#mask12_1368_1883)">
<path d="M772.178 229.474L771.68 405.303C769.552 404.085 768.495 402.472 768.504 400.867L768.997 225.035C768.996 226.639 770.062 228.247 772.178 229.474Z" fill="#858585"/>
</g>
<path d="M898.009 284.503L897.508 460.335L786.875 396.467L787.378 220.637L898.009 284.503Z" fill="#71004C"/>
<path d="M905.786 279.981L905.284 455.815L897.508 460.334L898.009 284.502L905.786 279.981Z" fill="#FF8A3B"/>
<path d="M898.009 284.502L897.509 460.334L894.372 459.38L882.304 466.657L882.799 293.338L898.009 284.502Z" fill="#DCDCDC"/>
<path d="M882.799 293.338L882.295 469.175L771.678 405.303L772.178 229.474L882.799 293.338Z" fill="#898989"/>
<path d="M898.009 284.502L882.799 293.338L772.176 229.472C767.962 227.035 767.937 223.078 772.138 220.635C776.333 218.2 783.159 218.2 787.378 220.635L898.009 284.502Z" fill="#B70284"/>
<path d="M772.178 229.474L882.8 293.34L894.876 286.325L783.925 222.462C780.399 220.426 775.048 220.118 770.937 221.494C768.011 223.932 768.424 227.3 772.178 229.474Z" fill="white"/>
<path d="M882.798 293.338L882.294 469.174L874.517 473.695L875.015 297.862L882.798 293.338Z" fill="#FF8A3B"/>
<path d="M760.749 231.886C756.455 229.408 754.299 226.152 754.313 222.894L753.815 398.723C753.807 401.979 755.953 405.241 760.247 407.717L874.519 473.695L875.015 297.862L760.749 231.886Z" fill="#FF8A3B"/>
<path d="M905.787 279.981L898.01 284.502L787.378 220.637C783.159 218.201 776.334 218.201 772.139 220.637C767.937 223.08 767.964 227.037 772.176 229.474L882.799 293.34L875.016 297.864L760.75 231.887C752.213 226.958 752.163 218.947 760.658 214.007C769.149 209.076 782.97 209.076 791.506 214.007L905.787 279.981Z" fill="#FF55B6"/>
<path d="M772.139 220.637C776.333 218.201 783.159 218.201 787.378 220.637L898.009 284.502L904.068 280.978L791.506 215.991C782.97 211.065 769.149 211.065 760.658 215.991C756.862 218.201 754.871 221.026 754.477 223.915C754.877 226.823 756.9 229.669 760.748 231.887L875.014 297.864L882.797 293.339L772.948 229.926C770.396 228.445 769.654 227.295 769.158 226.027C768.456 224.181 769.613 222.103 772.139 220.637Z" fill="#FF8A3B"/>
<path d="M898.009 284.502L897.508 460.334L894.372 459.38L894.875 286.325L898.009 284.502Z" fill="#B70284"/>
<path d="M777.491 223.654L890.152 289.068L892.765 287.523L777.491 223.654Z" fill="#C2CAF9"/>
<path d="M890.152 289.068L890.634 387.794L892.765 287.522L890.152 289.068Z" fill="#AEB9E5"/>
<path d="M885.768 372.418L884.476 465.344L887.053 463.792L885.768 372.418Z" fill="#8B9ACC"/>
<path d="M849.209 310.239L848.889 331.616L778.019 289.123L777.708 268.085L849.209 310.239Z" fill="#5100FF"/>
<path d="M849.209 343.929L848.889 365.304L778.019 322.813L777.708 301.773L849.209 343.929Z" fill="#5100FF"/>
<path d="M849.209 377.619L848.889 398.996L778.019 356.5L777.708 335.462L849.209 377.619Z" fill="#5100FF"/>
<path d="M845.001 301.823L844.679 323.194L773.81 280.703L773.498 259.666L845.001 301.823Z" fill="#5100FF"/>
<path d="M845.001 335.507L844.679 356.885L773.81 314.391L773.498 293.349L845.001 335.507Z" fill="#5100FF"/>
<path d="M845.001 369.198L844.679 390.573L773.81 348.077L773.498 327.042L845.001 369.198Z" fill="#5100FF"/>
<path opacity="0.1" d="M754.313 222.894L753.815 398.723C753.807 400.002 754.234 401.263 754.9 402.494L875.017 297.864L760.751 231.887C756.455 229.408 754.299 226.152 754.313 222.894Z" fill="white"/>
<mask id="mask13_1368_1883" style="mask-type:luminance" maskUnits="userSpaceOnUse" x="726" y="239" width="17" height="179">
<path d="M742.661 241.251L742.163 417.078C737.951 414.646 731.114 414.646 726.929 417.078L727.422 241.251C731.617 238.814 738.441 238.814 742.661 241.251Z" fill="white"/>
</mask>
<g mask="url(#mask13_1368_1883)">
<path d="M742.661 241.251L742.163 417.078C741.676 416.802 741.159 416.553 740.617 416.337L741.12 240.502C741.659 240.723 742.18 240.964 742.661 241.251Z" fill="#6E0049"/>
<path d="M741.12 240.503L740.618 416.338C740.2 416.171 739.758 416.026 739.305 415.895L739.808 240.066C740.254 240.189 740.688 240.341 741.12 240.503Z" fill="#72004C"/>
<path d="M739.808 240.066L739.306 415.895C738.945 415.791 738.562 415.698 738.181 415.622L738.687 239.786C739.058 239.864 739.44 239.959 739.808 240.066Z" fill="#76004F"/>
<path d="M738.686 239.786L738.181 415.622C737.834 415.547 737.475 415.487 737.113 415.436L737.615 239.603C737.974 239.655 738.329 239.716 738.686 239.786Z" fill="#18F180"/>
<path d="M737.615 239.604L737.113 415.438C736.766 415.389 736.421 415.348 736.064 415.315L736.566 239.489C736.916 239.514 737.269 239.554 737.615 239.604Z" fill="#18F180"/>
<path d="M736.566 239.488L736.063 415.313C735.714 415.286 735.35 415.269 735.008 415.258L735.506 239.426C735.863 239.437 736.213 239.456 736.566 239.488Z" fill="#00DC46"/>
<path d="M735.506 239.426L735.008 415.258C734.636 415.253 734.268 415.253 733.895 415.266L734.397 239.434C734.767 239.42 735.139 239.42 735.506 239.426Z" fill="#00DC46"/>
<path d="M734.397 239.434L733.894 415.266C733.494 415.283 733.099 415.304 732.694 415.348L733.196 239.513C733.601 239.475 733.993 239.447 734.397 239.434Z" fill="#18F180"/>
<path d="M733.196 239.512L732.694 415.347C732.234 415.389 731.782 415.454 731.331 415.536L731.824 239.702C732.276 239.625 732.736 239.559 733.196 239.512Z" fill="#18F180"/>
<path d="M731.823 239.703L731.33 415.536C730.62 415.663 729.939 415.834 729.29 416.045L729.782 240.211C730.438 240 731.125 239.832 731.823 239.703Z" fill="#00DC46"/>
<path d="M729.781 240.212L729.29 416.046C728.439 416.32 727.644 416.662 726.927 417.077L727.42 241.251C728.142 240.833 728.934 240.485 729.781 240.212Z" fill="#18F180"/>
</g>
<mask id="mask14_1368_1883" style="mask-type:luminance" maskUnits="userSpaceOnUse" x="723" y="241" width="5" height="181">
<path d="M723.787 421.479L724.28 245.648C724.28 244.053 725.344 242.464 727.421 241.251L726.928 417.078C724.833 418.292 723.787 419.89 723.787 421.479Z" fill="white"/>
</mask>
<g mask="url(#mask14_1368_1883)">
<path d="M727.42 241.251L726.927 417.078C726.877 417.106 726.836 417.132 726.798 417.161L727.291 241.33C727.341 241.298 727.378 241.276 727.42 241.251Z" fill="#18F180"/>
<path d="M727.291 241.329L726.798 417.161C726.273 417.474 725.808 417.813 725.424 418.175L725.92 242.342C726.313 241.981 726.771 241.646 727.291 241.329Z" fill="#00DC46"/>
<path d="M725.922 242.342L725.425 418.176C725.172 418.404 724.943 418.645 724.758 418.897L725.249 243.062C725.446 242.82 725.668 242.575 725.922 242.342Z" fill="#18F180"/>
<path d="M725.249 243.062L724.758 418.897C724.586 419.105 724.447 419.321 724.315 419.536L724.819 243.708C724.939 243.489 725.085 243.275 725.249 243.062Z" fill="#18F180"/>
<path d="M724.819 243.71L724.315 419.538C724.21 419.745 724.112 419.95 724.03 420.158L724.533 244.324C724.614 244.115 724.701 243.908 724.819 243.71Z" fill="#00DC46"/>
<path d="M724.533 244.323L724.03 420.156C723.961 420.359 723.902 420.558 723.863 420.766L724.358 244.934C724.394 244.732 724.463 244.528 724.533 244.323Z" fill="#00DC46"/>
<path d="M724.358 244.934L723.863 420.765C723.82 420.973 723.795 421.172 723.787 421.378L724.28 245.55C724.285 245.34 724.315 245.137 724.358 244.934Z" fill="#18F180"/>
<path d="M724.279 245.55L723.786 421.378C723.786 421.41 723.786 421.448 723.786 421.479L724.279 245.647C724.279 245.614 724.279 245.583 724.279 245.55Z" fill="#18F180"/>
</g>
<mask id="mask15_1368_1883" style="mask-type:luminance" maskUnits="userSpaceOnUse" x="723" y="245" width="5" height="181">
<path d="M723.787 421.479L724.28 245.647C724.28 247.254 725.344 248.858 727.458 250.088L726.963 425.918C724.833 424.693 723.776 423.081 723.787 421.479Z" fill="white"/>
</mask>
<g mask="url(#mask15_1368_1883)">
<path d="M727.456 250.088L726.962 425.918C724.832 424.693 723.777 423.08 723.786 421.479L724.279 245.647C724.279 247.254 725.342 248.858 727.456 250.088Z" fill="#858585"/>
</g>
<path d="M853.294 305.117L852.79 480.947L742.163 417.078L742.661 241.251L853.294 305.117Z" fill="#71004C"/>
<path d="M861.07 300.596L860.567 476.423L852.79 480.947L853.294 305.117L861.07 300.596Z" fill="#6E0095"/>
<path d="M853.294 305.116L852.79 480.946L849.654 479.993L837.589 487.269L838.08 313.949L853.294 305.116Z" fill="#DCDCDC"/>
<path d="M838.08 313.949L837.578 489.786L726.962 425.92L727.456 250.088L838.08 313.949Z" fill="#898989"/>
<path d="M853.294 305.117L838.082 313.951L727.456 250.09C723.246 247.65 723.22 243.689 727.42 241.252C731.616 238.816 738.44 238.816 742.661 241.252L853.294 305.117Z" fill="#4E0169"/>
<path d="M727.456 250.088L838.082 313.949L850.158 306.936L739.208 243.078C735.685 241.038 730.336 240.729 726.221 242.108C723.294 244.543 723.706 247.914 727.456 250.088Z" fill="white"/>
<path d="M838.08 313.949L837.578 489.785L829.804 494.309L830.297 318.478L838.08 313.949Z" fill="#6E0095"/>
<path d="M716.036 252.502C711.738 250.022 709.586 246.765 709.594 243.505L709.098 419.34C709.092 422.595 711.236 425.851 715.533 428.332L829.804 494.31L830.297 318.478L716.036 252.502Z" fill="#4E0169"/>
<path d="M861.07 300.595L853.293 305.116L742.661 241.251C738.441 238.814 731.617 238.814 727.42 241.251C723.219 243.689 723.246 247.65 727.457 250.088L838.082 313.949L830.299 318.476L716.038 252.5C707.495 247.569 707.449 239.559 715.941 234.619C724.432 229.687 738.257 229.687 746.796 234.619L861.07 300.595Z" fill="#C050EF"/>
<path d="M727.42 241.251C731.616 238.814 738.44 238.814 742.66 241.251L853.292 305.117L859.349 301.593L746.794 236.607C738.254 231.677 724.43 231.677 715.939 236.607C712.141 238.816 710.153 241.642 709.758 244.529C710.158 247.437 712.186 250.282 716.034 252.503L830.295 318.479L838.078 313.952L728.231 250.54C725.681 249.063 724.937 247.908 724.446 246.643C723.738 244.795 724.896 242.718 727.42 241.251Z" fill="#B839E3"/>
<path d="M853.294 305.116L852.79 480.946L849.654 479.993L850.156 306.936L853.294 305.116Z" fill="#4E0169"/>
<path d="M732.774 244.268L845.437 309.677L848.049 308.133L732.774 244.268Z" fill="#C2CAF9"/>
<path d="M845.437 309.677L845.917 408.403L848.049 308.133L845.437 309.677Z" fill="#AEB9E5"/>
<path d="M768.742 269.36L842.338 311.481L839.761 312.976L768.742 269.36Z" fill="#C2CAF9"/>
<path d="M842.338 311.48L841.21 372.523L839.761 312.975L842.338 311.48Z" fill="#AEB9E5"/>
<path d="M768.742 269.36L842.338 311.481L841.05 312.229L768.742 269.36Z" fill="#AEB9E5"/>
<path d="M848.048 308.133L802.481 282.888L846.744 308.919L848.048 308.133Z" fill="#AEB9E5"/>
<path d="M846.744 308.919L847.144 350.767L848.049 308.133L846.744 308.919Z" fill="#8B9ACC"/>
<path d="M841.05 312.229L841.634 349.192L842.338 311.48L841.05 312.229Z" fill="#8B9ACC"/>
<path d="M841.05 393.033L839.761 485.958L842.338 484.406L841.05 393.033Z" fill="#8B9ACC"/>
<path d="M804.494 330.855L804.171 352.231L733.305 309.738L732.99 288.701L804.494 330.855Z" fill="#3B07AB"/>
<path d="M804.494 364.542L804.171 385.918L733.305 343.424L732.99 322.387L804.494 364.542Z" fill="#3B07AB"/>
<path d="M804.494 398.231L804.171 419.604L733.305 377.113L732.99 356.073L804.494 398.231Z" fill="#3B07AB"/>
<path d="M800.284 322.433L799.961 343.806L729.092 301.317L728.781 280.274L800.284 322.433Z" fill="#3B07AB"/>
<path d="M800.284 356.118L799.961 377.498L729.092 335.002L728.781 313.968L800.284 356.118Z" fill="#3B07AB"/>
<path d="M800.284 389.806L799.961 411.184L729.092 368.69L728.781 347.654L800.284 389.806Z" fill="#3B07AB"/>
<path d="M798.615 282.493C798.615 282.493 796.631 268.239 805.54 262.514C814.299 256.887 815.236 254.797 816.113 251.111L818.223 257.777L826.816 253.918C826.816 253.918 823.838 265.148 816.647 269.359C809.448 273.569 808.566 285.861 810.145 289.189L798.615 282.493Z" fill="#FFC000"/>
<path d="M816.646 269.36C823.837 265.149 826.814 253.919 826.814 253.919L818.47 257.667C816.701 261.192 813.961 265.566 810.236 268.394C804.749 272.561 803.725 280.126 804.001 285.623L810.145 289.191C808.565 285.86 809.447 273.57 816.646 269.36Z" fill="#FFA300"/>
<path opacity="0.1" d="M709.594 243.505L709.098 419.34C709.092 420.615 709.517 421.875 710.182 423.11L830.298 318.478L716.037 252.502C711.738 250.022 709.587 246.765 709.594 243.505Z" fill="white"/>
<path d="M696.281 441.606C696.281 441.578 696.281 441.554 696.277 441.526C696.276 441.496 696.276 441.467 696.269 441.44C696.266 441.414 696.266 441.385 696.258 441.363C696.258 441.333 696.251 441.305 696.251 441.277C696.244 441.248 696.233 441.223 696.233 441.192C696.23 441.158 696.222 441.13 696.216 441.103C696.208 441.073 696.2 441.045 696.195 441.017C696.186 440.984 696.178 440.955 696.173 440.925C696.164 440.9 696.156 440.877 696.151 440.858C696.151 440.853 696.151 440.853 696.148 440.851C696.148 440.842 696.142 440.839 696.142 440.839C696.137 440.809 696.129 440.777 696.115 440.749C696.106 440.721 696.095 440.692 696.084 440.661C696.073 440.634 696.062 440.609 696.057 440.58C696.039 440.554 696.028 440.527 696.019 440.498C696.014 440.472 696 440.445 695.986 440.417C695.975 440.393 695.964 440.366 695.948 440.336C695.937 440.309 695.921 440.276 695.906 440.248C695.89 440.215 695.873 440.185 695.858 440.149C695.839 440.108 695.817 440.072 695.795 440.031C695.792 440.031 695.787 440.031 695.787 440.027C695.784 440.021 695.781 440.01 695.773 439.999C695.735 439.935 695.693 439.862 695.647 439.805C695.614 439.753 695.578 439.701 695.545 439.651C695.517 439.619 695.496 439.585 695.471 439.555C695.446 439.523 695.428 439.501 695.409 439.475C695.387 439.451 695.364 439.423 695.345 439.397C695.323 439.375 695.301 439.349 695.279 439.326C695.252 439.3 695.231 439.278 695.209 439.251C695.181 439.229 695.161 439.208 695.138 439.183C695.116 439.158 695.09 439.139 695.063 439.117C695.034 439.093 695.017 439.071 694.989 439.051C694.967 439.03 694.938 439.008 694.913 438.988C694.89 438.97 694.868 438.953 694.838 438.931C694.819 438.915 694.792 438.898 694.77 438.884C694.748 438.866 694.723 438.851 694.699 438.832C694.677 438.821 694.649 438.807 694.626 438.796C694.62 438.786 694.615 438.786 694.608 438.783L676.883 428.552C676.859 428.536 676.847 428.525 676.826 428.519C676.804 428.508 676.785 428.49 676.758 428.486C676.732 428.47 676.714 428.465 676.691 428.449C676.67 428.443 676.645 428.434 676.624 428.429C676.598 428.416 676.577 428.405 676.557 428.396C676.535 428.388 676.511 428.385 676.484 428.375C676.464 428.369 676.443 428.363 676.421 428.358C676.398 428.35 676.376 428.347 676.352 428.339C676.325 428.334 676.302 428.334 676.276 428.328C676.261 428.328 676.243 428.322 676.223 428.322C676.218 428.322 676.209 428.322 676.204 428.322C676.172 428.315 676.153 428.315 676.124 428.315C676.095 428.315 676.067 428.322 676.04 428.322C676.004 428.328 675.971 428.328 675.941 428.334C675.901 428.344 675.862 428.358 675.827 428.367C675.779 428.383 675.734 428.407 675.69 428.43L673.929 429.451C674.084 429.365 674.263 429.324 674.462 429.342H674.468C674.671 429.366 674.889 429.437 675.12 429.571L692.85 439.804C693.081 439.935 693.299 440.119 693.499 440.327C693.502 440.327 693.502 440.333 693.502 440.333C693.699 440.544 693.877 440.787 694.028 441.047C694.034 441.05 694.034 441.053 694.034 441.059C694.185 441.318 694.305 441.593 694.387 441.869L694.389 441.875C694.474 442.151 694.521 442.431 694.521 442.693C694.516 442.957 694.474 443.18 694.387 443.364C694.302 443.543 694.181 443.682 694.034 443.77L695.786 442.746C695.899 442.68 696 442.584 696.076 442.463C696.104 442.43 696.121 442.387 696.14 442.351C696.154 442.319 696.172 442.288 696.183 442.255C696.192 442.227 696.202 442.195 696.213 442.168C696.219 442.138 696.227 442.108 696.23 442.08C696.241 442.053 696.247 442.026 696.247 441.997C696.255 441.973 696.258 441.945 696.263 441.918C696.266 441.891 696.273 441.863 696.273 441.836C696.274 441.811 696.277 441.782 696.277 441.756C696.277 441.73 696.277 441.7 696.277 441.68V441.67C696.281 441.656 696.281 441.631 696.281 441.606Z" fill="#85A9FF"/>
<path d="M692.854 439.813C693.782 440.349 694.526 441.644 694.526 442.701C694.518 443.766 693.77 444.191 692.851 443.657L675.118 433.422C674.192 432.89 673.449 431.598 673.449 430.53C673.452 429.472 674.203 429.045 675.125 429.579L692.854 439.813Z" fill="#ADD3EA"/>
<path d="M721.592 455.87C721.585 455.845 721.585 455.82 721.584 455.791C721.584 455.762 721.584 455.736 721.574 455.705C721.574 455.683 721.571 455.654 721.566 455.623C721.563 455.601 721.56 455.574 721.552 455.543C721.549 455.514 721.547 455.489 721.541 455.459C721.535 455.428 721.53 455.399 721.524 455.368C721.519 455.339 721.508 455.314 721.502 455.281C721.497 455.25 721.489 455.221 721.48 455.191C721.475 455.168 721.467 455.146 721.459 455.124C721.459 455.124 721.459 455.117 721.453 455.113V455.108C721.442 455.073 721.434 455.043 721.425 455.015C721.417 454.987 721.403 454.957 721.393 454.93C721.382 454.9 721.371 454.872 721.363 454.846C721.352 454.82 721.338 454.791 721.332 454.764C721.316 454.736 721.308 454.709 721.295 454.686C721.281 454.66 721.27 454.631 721.262 454.605C721.245 454.574 721.231 454.547 721.217 454.514C721.196 454.483 721.182 454.449 721.166 454.415C721.149 454.372 721.124 454.341 721.1 454.3C721.1 454.3 721.098 454.3 721.098 454.293C721.089 454.281 721.089 454.278 721.084 454.267C721.04 454.201 720.998 454.133 720.955 454.071C720.922 454.024 720.883 453.972 720.85 453.919C720.831 453.885 720.799 453.852 720.779 453.816C720.757 453.793 720.736 453.767 720.717 453.742C720.695 453.714 720.675 453.692 720.646 453.666C720.627 453.637 720.607 453.616 720.582 453.594C720.56 453.566 720.539 453.545 720.517 453.522C720.489 453.498 720.468 453.476 720.446 453.452C720.421 453.427 720.398 453.403 720.368 453.381C720.349 453.359 720.322 453.342 720.3 453.317C720.271 453.301 720.246 453.281 720.218 453.258C720.196 453.241 720.175 453.221 720.149 453.2C720.123 453.186 720.1 453.166 720.078 453.15C720.049 453.134 720.029 453.117 720.007 453.103C719.982 453.092 719.958 453.074 719.936 453.066C719.928 453.057 719.92 453.054 719.912 453.054L702.188 442.816C702.172 442.807 702.153 442.794 702.134 442.789C702.109 442.772 702.091 442.759 702.063 442.752C702.041 442.737 702.021 442.73 701.999 442.718C701.976 442.707 701.95 442.695 701.928 442.692C701.906 442.681 701.885 442.671 701.863 442.663C701.841 442.657 701.816 442.646 701.795 442.641C701.773 442.637 701.75 442.624 701.728 442.619C701.704 442.616 701.683 442.613 701.66 442.605C701.63 442.599 701.609 442.597 701.581 442.592C701.57 442.592 701.548 442.589 701.534 442.589C701.528 442.586 701.516 442.583 701.512 442.583C701.483 442.583 701.457 442.583 701.433 442.583C701.405 442.583 701.376 442.583 701.346 442.586C701.316 442.589 701.277 442.596 701.252 442.599C701.206 442.608 701.17 442.619 701.132 442.635C701.085 442.649 701.041 442.671 700.995 442.692L699.24 443.716C699.39 443.627 699.571 443.591 699.771 443.607H699.779C699.976 443.629 700.198 443.7 700.431 443.835L718.161 454.07C718.391 454.201 718.606 454.38 718.803 454.591C718.811 454.591 718.811 454.601 718.811 454.601C719.007 454.815 719.185 455.054 719.334 455.311C719.339 455.316 719.342 455.324 719.342 455.324C719.489 455.584 719.61 455.856 719.695 456.13V456.14C719.78 456.414 719.829 456.694 719.829 456.954C719.824 457.219 719.78 457.441 719.695 457.622V457.628C719.61 457.809 719.489 457.943 719.339 458.032L721.097 457.009C721.209 456.945 721.308 456.853 721.387 456.729C721.409 456.693 721.429 456.652 721.451 456.615C721.466 456.581 721.478 456.549 721.488 456.521C721.499 456.489 721.505 456.456 721.521 456.429C721.527 456.403 721.538 456.373 721.544 456.343C721.546 456.314 721.549 456.288 721.557 456.261C721.563 456.233 721.563 456.207 721.571 456.184C721.571 456.152 721.577 456.125 721.581 456.099C721.581 456.07 721.582 456.047 721.582 456.017C721.588 455.988 721.588 455.968 721.588 455.936C721.592 455.919 721.592 455.899 721.592 455.87Z" fill="#85A9FF"/>
<path d="M718.165 454.083C719.087 454.615 719.834 455.912 719.834 456.967C719.829 458.034 719.077 458.459 718.153 457.925L700.423 447.695C699.502 447.158 698.754 445.866 698.76 444.806C698.76 443.743 699.506 443.314 700.436 443.85L718.165 454.083Z" fill="#ADD3EA"/>
<path d="M940.201 512.266C938.802 513.072 937.678 515.032 937.679 516.636C937.689 518.242 938.824 518.891 940.219 518.085L967.036 502.597C968.433 501.79 969.561 499.839 969.556 498.232C969.551 496.625 968.42 495.976 967.017 496.781L940.201 512.266Z" fill="#608EEA"/>
<path d="M940.201 512.266C938.802 513.072 937.678 515.032 937.679 516.636C937.689 518.242 938.824 518.891 940.219 518.085L967.036 502.597C968.433 501.79 969.561 499.839 969.556 498.232C969.551 496.625 968.42 495.976 967.017 496.781L940.201 512.266Z" fill="#608EEA"/>
<path d="M940.201 512.266C938.802 513.072 937.678 515.032 937.679 516.636C937.689 518.242 938.824 518.891 940.219 518.085L967.036 502.597C968.433 501.79 969.561 499.839 969.556 498.232C969.551 496.625 968.42 495.976 967.017 496.781L940.201 512.266Z" fill="#608EEA"/>
<path d="M940.201 512.266C938.802 513.072 937.678 515.032 937.679 516.636C937.679 516.779 937.737 516.874 937.753 517.001C937.764 516.996 937.764 516.996 937.775 516.995L964.591 501.508C965.994 500.702 967.118 498.747 967.113 497.143C967.113 496.997 967.059 496.906 967.042 496.776C967.031 496.781 967.026 496.781 967.017 496.781L940.201 512.266Z" fill="#487FD8"/>
<g opacity="0.7">
<path opacity="0.0833" d="M730.022 242.273C730.022 251.23 722.761 258.495 713.799 258.495C704.834 258.495 697.574 251.23 697.574 242.273C697.574 233.307 704.834 226.045 713.799 226.045C722.761 226.045 730.022 233.308 730.022 242.273Z" fill="#C45AE8"/>
<path opacity="0.1667" d="M726.974 242.437C726.974 249.712 721.078 255.613 713.799 255.613C706.518 255.613 700.622 249.712 700.622 242.437C700.622 235.157 706.518 229.257 713.799 229.257C721.077 229.257 726.974 235.157 726.974 242.437Z" fill="#D07BEC"/>
<path opacity="0.25" d="M723.926 242.601C723.926 248.193 719.394 252.73 713.799 252.73C708.202 252.73 703.67 248.193 703.67 242.601C703.67 237.004 708.202 232.471 713.799 232.471C719.394 232.471 723.926 237.003 723.926 242.601Z" fill="#DC9CF1"/>
<path opacity="0.3333" d="M720.88 242.763C720.88 246.672 717.71 249.844 713.799 249.844C709.886 249.844 706.718 246.672 706.718 242.763C706.718 238.852 709.886 235.683 713.799 235.683C717.71 235.683 720.88 238.852 720.88 242.763Z" fill="#E7BDF6"/>
<path opacity="0.4167" d="M717.831 242.927C717.831 245.152 716.028 246.961 713.799 246.961C711.57 246.961 709.766 245.152 709.766 242.927C709.766 240.699 711.57 238.896 713.799 238.896C716.026 238.896 717.831 240.698 717.831 242.927Z" fill="#F3DEFA"/>
<path opacity="0.5" d="M714.784 243.089C714.784 243.632 714.344 244.075 713.799 244.075C713.252 244.075 712.814 243.632 712.814 243.089C712.814 242.545 713.252 242.107 713.799 242.107C714.344 242.107 714.784 242.545 714.784 243.089Z" fill="white"/>
</g>
<path d="M716.232 366.852L651.817 328.887C650.275 327.98 649.008 328.693 648.978 330.478L648.915 336.688L718.915 377.933L718.991 371.728C719.013 369.943 717.776 367.758 716.232 366.852Z" fill="#709DDA"/>
<path d="M718.991 371.728L718.915 377.933L648.915 336.688L648.364 383.807C648.34 385.589 649.566 387.769 651.116 388.679L715.538 426.641C717.074 427.547 718.339 426.845 718.361 425.057L718.991 371.728Z" fill="#F0F8FF"/>
<path d="M701.186 374.226L701.172 378.416L661.869 355.726L661.881 351.538L701.186 374.226Z" fill="#AECFFF"/>
<path d="M701.186 383.019L701.172 387.205L661.869 364.516L661.881 360.328L701.186 383.019Z" fill="#AECFFF"/>
<path d="M701.186 394.739L701.172 398.925L661.869 376.239L661.881 372.046L701.186 394.739Z" fill="#AECFFF"/>
<path d="M701.186 403.52L701.172 407.713L661.869 385.028L661.881 380.833L701.186 403.52Z" fill="#AECFFF"/>
<g opacity="0.7">
<path opacity="0.1167" d="M677.455 334.194C677.455 346.169 667.743 355.882 655.766 355.882C643.785 355.882 634.072 346.167 634.072 334.194C634.072 322.212 643.783 312.501 655.766 312.501C667.745 312.501 677.455 322.212 677.455 334.194Z" fill="white"/>
<path opacity="0.2333" d="M673.379 334.413C673.379 344.137 665.492 352.026 655.765 352.026C646.034 352.026 638.146 344.137 638.146 334.413C638.146 324.683 646.034 316.795 655.765 316.795C665.492 316.795 673.379 324.683 673.379 334.413Z" fill="white"/>
<path opacity="0.35" d="M669.304 334.632C669.304 342.107 663.243 348.17 655.765 348.17C648.287 348.17 642.222 342.107 642.222 334.632C642.222 327.153 648.287 321.091 655.765 321.091C663.243 321.091 669.304 327.153 669.304 334.632Z" fill="white"/>
<path opacity="0.4667" d="M665.227 334.851C665.227 340.076 660.992 344.314 655.762 344.314C650.537 344.314 646.294 340.076 646.294 334.851C646.294 329.623 650.535 325.385 655.762 325.385C660.992 325.385 665.227 329.623 665.227 334.851Z" fill="white"/>
<path opacity="0.5833" d="M661.152 335.07C661.152 338.045 658.739 340.457 655.762 340.457C652.788 340.457 650.371 338.044 650.371 335.07C650.371 332.094 652.789 329.681 655.762 329.681C658.74 329.681 661.152 332.094 661.152 335.07Z" fill="white"/>
<path opacity="0.7" d="M657.077 335.288C657.077 336.013 656.49 336.6 655.76 336.6C655.039 336.6 654.445 336.013 654.445 335.288C654.445 334.564 655.039 333.976 655.76 333.976C656.49 333.975 657.077 334.564 657.077 335.288Z" fill="white"/>
</g>
<path d="M82.0938 238.188H89.5938V275.844H111.031V283H82.0938V238.188ZM117.094 238.531C117.99 237.635 119.062 237.188 120.312 237.188C121.562 237.188 122.635 237.635 123.531 238.531C124.448 239.427 124.906 240.49 124.906 241.719C124.906 242.99 124.448 244.073 123.531 244.969C122.635 245.865 121.562 246.312 120.312 246.312C119.062 246.312 117.99 245.865 117.094 244.969C116.198 244.073 115.75 242.99 115.75 241.719C115.75 240.49 116.198 239.427 117.094 238.531ZM116.719 251.719H123.812V283H116.719V251.719ZM148.812 251.062C153.021 251.062 156.573 252.635 159.469 255.781C162.385 258.927 163.844 262.771 163.844 267.312C163.844 271.896 162.385 275.76 159.469 278.906C156.573 282.052 153.021 283.625 148.812 283.625C146.729 283.625 144.75 283.177 142.875 282.281C141 281.365 139.646 280.198 138.812 278.781V283H131.719V238.188H138.812V255.938C139.646 254.521 141 253.354 142.875 252.438C144.75 251.521 146.729 251.062 148.812 251.062ZM147.344 276.844C150.031 276.844 152.281 275.938 154.094 274.125C155.906 272.292 156.812 270.021 156.812 267.312C156.812 264.604 155.906 262.354 154.094 260.562C152.281 258.75 150.031 257.844 147.344 257.844C145.573 257.844 143.896 258.292 142.312 259.188C140.75 260.062 139.583 261.198 138.812 262.594V272.188C139.583 273.542 140.76 274.656 142.344 275.531C143.927 276.406 145.594 276.844 147.344 276.844ZM184.875 251.062C186.375 251.062 187.51 251.229 188.281 251.562V258.281C186.781 257.865 185.458 257.656 184.312 257.656C183.021 257.656 181.656 258.146 180.219 259.125C178.781 260.083 177.667 261.385 176.875 263.031V283H169.781V251.719H176.875V256C177.646 254.542 178.802 253.354 180.344 252.438C181.885 251.521 183.396 251.062 184.875 251.062ZM214.562 251.719H221.688V283H214.562V278.781C213.729 280.198 212.375 281.365 210.5 282.281C208.646 283.177 206.677 283.625 204.594 283.625C200.385 283.625 196.823 282.052 193.906 278.906C191.01 275.76 189.562 271.896 189.562 267.312C189.562 262.771 191.01 258.927 193.906 255.781C196.823 252.635 200.385 251.062 204.594 251.062C206.656 251.062 208.625 251.521 210.5 252.438C212.375 253.354 213.729 254.521 214.562 255.938V251.719ZM206.062 276.844C207.812 276.844 209.469 276.406 211.031 275.531C212.615 274.656 213.792 273.542 214.562 272.188V262.594C213.792 261.198 212.625 260.062 211.062 259.188C209.5 258.292 207.833 257.844 206.062 257.844C203.375 257.844 201.125 258.75 199.312 260.562C197.5 262.354 196.594 264.604 196.594 267.312C196.594 270.021 197.5 272.292 199.312 274.125C201.125 275.938 203.375 276.844 206.062 276.844ZM244.312 251.062C245.812 251.062 246.948 251.229 247.719 251.562V258.281C246.219 257.865 244.896 257.656 243.75 257.656C242.458 257.656 241.094 258.146 239.656 259.125C238.219 260.083 237.104 261.385 236.312 263.031V283H229.219V251.719H236.312V256C237.083 254.542 238.24 253.354 239.781 252.438C241.323 251.521 242.833 251.062 244.312 251.062ZM274.469 251.719H282.156L264.469 294H256.812L262.438 281.344L250.031 251.719H257.688L266.094 273.031L274.469 251.719ZM82.0938 360V315.188H91.125L106.031 349L121.406 315.188H129.062V360H121.594V329.906L108.219 360H102.719L89.5938 329.906V360H82.0938ZM160.375 328.719H167.5V360H160.375V355.781C159.542 357.198 158.188 358.365 156.312 359.281C154.458 360.177 152.49 360.625 150.406 360.625C146.198 360.625 142.635 359.052 139.719 355.906C136.823 352.76 135.375 348.896 135.375 344.312C135.375 339.771 136.823 335.927 139.719 332.781C142.635 329.635 146.198 328.062 150.406 328.062C152.469 328.062 154.438 328.521 156.312 329.438C158.188 330.354 159.542 331.521 160.375 332.938V328.719ZM151.875 353.844C153.625 353.844 155.281 353.406 156.844 352.531C158.427 351.656 159.604 350.542 160.375 349.188V339.594C159.604 338.198 158.438 337.062 156.875 336.188C155.312 335.292 153.646 334.844 151.875 334.844C149.188 334.844 146.938 335.75 145.125 337.562C143.312 339.354 142.406 341.604 142.406 344.312C142.406 347.021 143.312 349.292 145.125 351.125C146.938 352.938 149.188 353.844 151.875 353.844ZM191.719 328.062C195.635 328.062 198.75 329.333 201.062 331.875C203.375 334.417 204.531 337.844 204.531 342.156V360H197.375V343.281C197.375 340.781 196.698 338.802 195.344 337.344C194.01 335.885 192.229 335.156 190 335.156C188.396 335.156 186.875 335.552 185.438 336.344C184.021 337.135 182.917 338.198 182.125 339.531V360H175.031V328.719H182.125V332.938C183.083 331.438 184.427 330.25 186.156 329.375C187.885 328.5 189.74 328.062 191.719 328.062ZM235.438 328.719H242.562V360H235.438V355.781C234.604 357.198 233.25 358.365 231.375 359.281C229.521 360.177 227.552 360.625 225.469 360.625C221.26 360.625 217.698 359.052 214.781 355.906C211.885 352.76 210.438 348.896 210.438 344.312C210.438 339.771 211.885 335.927 214.781 332.781C217.698 329.635 221.26 328.062 225.469 328.062C227.531 328.062 229.5 328.521 231.375 329.438C233.25 330.354 234.604 331.521 235.438 332.938V328.719ZM226.938 353.844C228.688 353.844 230.344 353.406 231.906 352.531C233.49 351.656 234.667 350.542 235.438 349.188V339.594C234.667 338.198 233.5 337.062 231.938 336.188C230.375 335.292 228.708 334.844 226.938 334.844C224.25 334.844 222 335.75 220.188 337.562C218.375 339.354 217.469 341.604 217.469 344.312C217.469 347.021 218.375 349.292 220.188 351.125C222 352.938 224.25 353.844 226.938 353.844ZM273.5 328.625H280.625V358.844C280.625 363.156 279.146 366.604 276.188 369.188C273.229 371.771 269.458 373.062 264.875 373.062C263.542 373.062 262.208 372.948 260.875 372.719C259.562 372.49 258.208 372.083 256.812 371.5C255.438 370.917 254.208 370.188 253.125 369.312C252.062 368.458 251.167 367.333 250.438 365.938C249.729 364.542 249.333 362.969 249.25 361.219H256.438C256.521 362.906 257.344 364.229 258.906 365.188C260.469 366.167 262.375 366.656 264.625 366.656C267.125 366.656 269.229 365.927 270.938 364.469C272.646 363.01 273.5 361.094 273.5 358.719V355.188C272.667 356.542 271.312 357.677 269.438 358.594C267.562 359.49 265.594 359.938 263.531 359.938C259.323 359.938 255.76 358.396 252.844 355.312C249.948 352.208 248.5 348.417 248.5 343.938C248.5 339.479 249.948 335.719 252.844 332.656C255.76 329.594 259.323 328.062 263.531 328.062C265.615 328.062 267.583 328.51 269.438 329.406C271.312 330.302 272.667 331.438 273.5 332.812V328.625ZM265 353.281C266.75 353.281 268.406 352.865 269.969 352.031C271.552 351.177 272.729 350.083 273.5 348.75V339.25C272.729 337.896 271.562 336.792 270 335.938C268.438 335.083 266.771 334.656 265 334.656C262.312 334.656 260.062 335.542 258.25 337.312C256.438 339.083 255.531 341.292 255.531 343.938C255.531 346.625 256.438 348.854 258.25 350.625C260.062 352.396 262.312 353.281 265 353.281ZM317.969 343.688C317.969 345.125 317.906 346.125 317.781 346.688H293.781C294.24 349.021 295.26 350.854 296.844 352.188C298.427 353.521 300.458 354.188 302.938 354.188C304.854 354.188 306.5 353.771 307.875 352.938C309.271 352.104 310.125 351.021 310.438 349.688H317.594C317.01 352.979 315.365 355.625 312.656 357.625C309.948 359.625 306.667 360.625 302.812 360.625C299.792 360.625 297.042 359.917 294.562 358.5C292.083 357.062 290.125 355.083 288.688 352.562C287.271 350.042 286.562 347.25 286.562 344.188C286.562 341.208 287.271 338.49 288.688 336.031C290.125 333.552 292.073 331.604 294.531 330.188C297.01 328.771 299.729 328.062 302.688 328.062C305.479 328.062 308.031 328.719 310.344 330.031C312.677 331.344 314.531 333.208 315.906 335.625C317.281 338.021 317.969 340.708 317.969 343.688ZM293.969 340.594H310.219C309.906 338.781 309.031 337.323 307.594 336.219C306.177 335.094 304.406 334.531 302.281 334.531C300.177 334.531 298.396 335.062 296.938 336.125C295.479 337.188 294.49 338.677 293.969 340.594ZM360.188 328.062C364 328.062 367.083 329.24 369.438 331.594C371.812 333.927 373 337.021 373 340.875V360H365.75V342.219C365.75 339.885 365.135 338.042 363.906 336.688C362.677 335.333 361.01 334.656 358.906 334.656C357.531 334.656 356.188 335.062 354.875 335.875C353.562 336.688 352.542 337.708 351.812 338.938L352 340.031V360H344.844V342.219C344.844 339.906 344.219 338.073 342.969 336.719C341.719 335.344 340.094 334.656 338.094 334.656C336.552 334.656 335.146 335.062 333.875 335.875C332.625 336.667 331.667 337.708 331 339V360H323.906V328.719H331V332.812C331.938 331.521 333.208 330.406 334.812 329.469C336.417 328.531 338.323 328.062 340.531 328.062C344.885 328.062 348.021 329.75 349.938 333.125C351.146 331.688 352.635 330.49 354.406 329.531C356.177 328.552 358.104 328.062 360.188 328.062ZM410.281 343.688C410.281 345.125 410.219 346.125 410.094 346.688H386.094C386.552 349.021 387.573 350.854 389.156 352.188C390.74 353.521 392.771 354.188 395.25 354.188C397.167 354.188 398.812 353.771 400.188 352.938C401.583 352.104 402.438 351.021 402.75 349.688H409.906C409.323 352.979 407.677 355.625 404.969 357.625C402.26 359.625 398.979 360.625 395.125 360.625C392.104 360.625 389.354 359.917 386.875 358.5C384.396 357.062 382.438 355.083 381 352.562C379.583 350.042 378.875 347.25 378.875 344.188C378.875 341.208 379.583 338.49 381 336.031C382.438 333.552 384.385 331.604 386.844 330.188C389.323 328.771 392.042 328.062 395 328.062C397.792 328.062 400.344 328.719 402.656 330.031C404.99 331.344 406.844 333.208 408.219 335.625C409.594 338.021 410.281 340.708 410.281 343.688ZM386.281 340.594H402.531C402.219 338.781 401.344 337.323 399.906 336.219C398.49 335.094 396.719 334.531 394.594 334.531C392.49 334.531 390.708 335.062 389.25 336.125C387.792 337.188 386.802 338.677 386.281 340.594ZM432.906 328.062C436.823 328.062 439.938 329.333 442.25 331.875C444.562 334.417 445.719 337.844 445.719 342.156V360H438.562V343.281C438.562 340.781 437.885 338.802 436.531 337.344C435.198 335.885 433.417 335.156 431.188 335.156C429.583 335.156 428.062 335.552 426.625 336.344C425.208 337.135 424.104 338.198 423.312 339.531V360H416.219V328.719H423.312V332.938C424.271 331.438 425.615 330.25 427.344 329.375C429.073 328.5 430.927 328.062 432.906 328.062ZM470.156 335.5H461.938V348.094C461.938 349.99 462.458 351.396 463.5 352.312C464.562 353.208 466.01 353.656 467.844 353.656C468.74 353.656 469.51 353.573 470.156 353.406V360C469.052 360.25 467.771 360.375 466.312 360.375C462.792 360.375 459.99 359.323 457.906 357.219C455.823 355.115 454.781 352.115 454.781 348.219V335.5H448.844V328.719H454.781V320.312H461.938V328.719H470.156V335.5ZM97.4688 437.625C92.6354 437.625 88.6458 436.219 85.5 433.406C82.375 430.573 80.8125 426.948 80.8125 422.531H88.25C88.25 424.927 89.1042 426.875 90.8125 428.375C92.5417 429.854 94.7604 430.594 97.4688 430.594C100.01 430.594 102.083 430.01 103.688 428.844C105.292 427.656 106.094 426.125 106.094 424.25C106.094 423.167 105.812 422.229 105.25 421.438C104.688 420.646 103.927 420.01 102.969 419.531C102.031 419.031 100.938 418.594 99.6875 418.219C98.4583 417.823 97.1562 417.458 95.7812 417.125C94.4271 416.771 93.0625 416.396 91.6875 416C90.3333 415.583 89.0312 415.062 87.7812 414.438C86.5521 413.792 85.4583 413.042 84.5 412.188C83.5625 411.333 82.8125 410.229 82.25 408.875C81.6875 407.521 81.4062 405.969 81.4062 404.219C81.4062 400.531 82.8333 397.5 85.6875 395.125C88.5417 392.75 92.1667 391.562 96.5625 391.562C99.0625 391.562 101.312 391.938 103.312 392.688C105.333 393.438 106.969 394.469 108.219 395.781C109.49 397.073 110.458 398.562 111.125 400.25C111.792 401.917 112.125 403.708 112.125 405.625H104.438C104.375 403.583 103.604 401.917 102.125 400.625C100.646 399.312 98.7083 398.656 96.3125 398.656C94.0417 398.656 92.2083 399.167 90.8125 400.188C89.4375 401.188 88.75 402.51 88.75 404.156C88.75 405.156 89.0312 406.021 89.5938 406.75C90.1562 407.479 90.9167 408.073 91.875 408.531C92.8333 408.969 93.9271 409.365 95.1562 409.719C96.4062 410.073 97.7083 410.417 99.0625 410.75C100.438 411.083 101.812 411.458 103.188 411.875C104.562 412.292 105.865 412.833 107.094 413.5C108.344 414.167 109.448 414.948 110.406 415.844C111.365 416.74 112.125 417.906 112.688 419.344C113.25 420.781 113.531 422.417 113.531 424.25C113.531 426 113.146 427.688 112.375 429.312C111.625 430.917 110.573 432.344 109.219 433.594C107.865 434.823 106.167 435.802 104.125 436.531C102.104 437.26 99.8854 437.625 97.4688 437.625ZM138.844 405.719H146.531L128.844 448H121.188L126.812 435.344L114.406 405.719H122.062L130.469 427.031L138.844 405.719ZM161.125 437.625C157.25 437.625 154.073 436.677 151.594 434.781C149.115 432.885 147.719 430.271 147.406 426.938H154.25C154.375 428.292 155.042 429.396 156.25 430.25C157.458 431.083 158.948 431.5 160.719 431.5C162.427 431.5 163.771 431.167 164.75 430.5C165.729 429.833 166.219 428.948 166.219 427.844C166.219 426.948 165.885 426.219 165.219 425.656C164.552 425.073 163.688 424.646 162.625 424.375C161.562 424.083 160.385 423.823 159.094 423.594C157.823 423.365 156.542 423.073 155.25 422.719C153.958 422.365 152.781 421.906 151.719 421.344C150.656 420.76 149.792 419.906 149.125 418.781C148.458 417.635 148.125 416.26 148.125 414.656C148.125 411.885 149.198 409.594 151.344 407.781C153.51 405.969 156.385 405.062 159.969 405.062C163.344 405.062 166.229 405.927 168.625 407.656C171.021 409.385 172.396 411.781 172.75 414.844H165.594C165.427 413.74 164.823 412.833 163.781 412.125C162.74 411.396 161.427 411.031 159.844 411.031C158.427 411.031 157.271 411.323 156.375 411.906C155.479 412.469 155.031 413.24 155.031 414.219C155.031 414.969 155.292 415.594 155.812 416.094C156.333 416.594 157.021 416.958 157.875 417.188C158.729 417.396 159.698 417.615 160.781 417.844C161.865 418.073 162.979 418.281 164.125 418.469C165.271 418.656 166.385 418.979 167.469 419.438C168.552 419.875 169.521 420.406 170.375 421.031C171.229 421.656 171.917 422.552 172.438 423.719C172.958 424.865 173.219 426.219 173.219 427.781C173.219 430.594 172.062 432.938 169.75 434.812C167.458 436.688 164.583 437.625 161.125 437.625ZM196.594 412.5H188.375V425.094C188.375 426.99 188.896 428.396 189.938 429.312C191 430.208 192.448 430.656 194.281 430.656C195.177 430.656 195.948 430.573 196.594 430.406V437C195.49 437.25 194.208 437.375 192.75 437.375C189.229 437.375 186.427 436.323 184.344 434.219C182.26 432.115 181.219 429.115 181.219 425.219V412.5H175.281V405.719H181.219V397.312H188.375V405.719H196.594V412.5ZM230.344 420.688C230.344 422.125 230.281 423.125 230.156 423.688H206.156C206.615 426.021 207.635 427.854 209.219 429.188C210.802 430.521 212.833 431.188 215.312 431.188C217.229 431.188 218.875 430.771 220.25 429.938C221.646 429.104 222.5 428.021 222.812 426.688H229.969C229.385 429.979 227.74 432.625 225.031 434.625C222.323 436.625 219.042 437.625 215.188 437.625C212.167 437.625 209.417 436.917 206.938 435.5C204.458 434.062 202.5 432.083 201.062 429.562C199.646 427.042 198.938 424.25 198.938 421.188C198.938 418.208 199.646 415.49 201.062 413.031C202.5 410.552 204.448 408.604 206.906 407.188C209.385 405.771 212.104 405.062 215.062 405.062C217.854 405.062 220.406 405.719 222.719 407.031C225.052 408.344 226.906 410.208 228.281 412.625C229.656 415.021 230.344 417.708 230.344 420.688ZM206.344 417.594H222.594C222.281 415.781 221.406 414.323 219.969 413.219C218.552 412.094 216.781 411.531 214.656 411.531C212.552 411.531 210.771 412.062 209.312 413.125C207.854 414.188 206.865 415.677 206.344 417.594ZM272.562 405.062C276.375 405.062 279.458 406.24 281.812 408.594C284.188 410.927 285.375 414.021 285.375 417.875V437H278.125V419.219C278.125 416.885 277.51 415.042 276.281 413.688C275.052 412.333 273.385 411.656 271.281 411.656C269.906 411.656 268.562 412.062 267.25 412.875C265.938 413.688 264.917 414.708 264.188 415.938L264.375 417.031V437H257.219V419.219C257.219 416.906 256.594 415.073 255.344 413.719C254.094 412.344 252.469 411.656 250.469 411.656C248.927 411.656 247.521 412.062 246.25 412.875C245 413.667 244.042 414.708 243.375 416V437H236.281V405.719H243.375V409.812C244.312 408.521 245.583 407.406 247.188 406.469C248.792 405.531 250.698 405.062 252.906 405.062C257.26 405.062 260.396 406.75 262.312 410.125C263.521 408.688 265.01 407.49 266.781 406.531C268.552 405.552 270.479 405.062 272.562 405.062Z" fill="white"/>
<defs>
<linearGradient id="paint0_linear_1368_1883" x1="600" y1="-544.5" x2="600" y2="939" gradientUnits="userSpaceOnUse">
<stop stop-color="#165454"/>
<stop offset="0.245" stop-color="#083E3F"/>
<stop offset="0.577628" stop-color="#00373A"/>
<stop offset="0.99"/>
</linearGradient>
</defs>
</svg>
